<svg xmlns="http://www.w3.org/2000/svg" class="svg-symbol" display="none">
      <defs>
        <symbol id="ball-120" viewBox="0 0 120 120"><path d="M119.9,60c0,1.49-1,2.94-1.15,4.4s.71,3.07.49,4.53-1.47,2.75-1.79,4.18.24,3.14-.19,4.55-1.86,2.49-2.4,3.87-.23,3.14-.87,4.47-2.21,2.18-3,3.46-.7,3.07-1.53,4.29-2.51,1.83-3.44,3-1.14,2.93-2.15,4-2.76,1.43-3.84,2.44-1.56,2.72-2.72,3.65-2.94,1-4.16,1.85-1.95,2.46-3.23,3.2-3.05.56-4.39,1.2-2.29,2.14-3.67,2.69-3.1.1-4.52.53-2.58,1.77-4,2.1-3.08-.37-4.55-.15-2.82,1.37-4.31,1.48-3-.83-4.48-.83-3,.93-4.48.83-2.85-1.26-4.31-1.48-3.11.48-4.55.15-2.63-1.67-4-2.1-3.15,0-4.52-.53-2.34-2-3.67-2.69-3.11-.46-4.39-1.2-2-2.37-3.23-3.2-3-.92-4.16-1.85-1.64-2.64-2.72-3.65-2.83-1.36-3.84-2.44-1.22-2.85-2.15-4-2.6-1.76-3.44-3-.79-3-1.53-4.29S6.67,87.33,6,86s-.33-3.08-.87-4.47-2-2.45-2.4-3.87.14-3.1-.19-4.55S1,70.4.77,68.93s.6-3,.49-4.53S.11,61.49.11,60s1-2.94,1.15-4.4S.55,52.53.77,51.07s1.47-2.75,1.79-4.18-.24-3.14.19-4.55,1.86-2.49,2.4-3.87S5.38,35.34,6,34s2.21-2.18,3-3.46.7-3.07,1.53-4.29,2.51-1.83,3.44-3,1.14-2.93,2.15-4,2.76-1.43,3.84-2.44,1.56-2.72,2.72-3.65,2.94-1,4.16-1.85S28.76,8.86,30,8.12s3.05-.56,4.39-1.2,2.29-2.14,3.67-2.69,3.1-.1,4.52-.53,2.58-1.77,4-2.1,3.08.37,4.55.15S54,.38,55.52.27s3,.83,4.48.83,3-.93,4.48-.83,2.85,1.26,4.31,1.48,3.11-.48,4.55-.15,2.63,1.67,4,2.1,3.15,0,4.52.53,2.34,2,3.67,2.69,3.11.46,4.39,1.2,2,2.37,3.23,3.2,3,.92,4.16,1.85,1.64,2.64,2.72,3.65,2.83,1.36,3.84,2.44,1.22,2.85,2.15,4,2.6,1.76,3.44,3,.79,3,1.53,4.29,2.31,2.13,3,3.46.33,3.08.87,4.47,2,2.45,2.4,3.87-.14,3.1.19,4.55,1.57,2.71,1.79,4.18-.6,3-.49,4.53S119.9,58.51,119.9,60Z"/></symbol>

        <symbol id="ball-320" viewBox="0 0 320 320"><path d="M319.39,160c0,2.53-2,5-2.16,7.49s1.68,5.17,1.44,7.66-2.5,4.78-2.85,7.26,1.18,5.3.71,7.76-2.94,4.52-3.53,7,.67,5.39,0,7.8-3.36,4.21-4.18,6.58.15,5.43-.78,7.76-3.75,3.87-4.79,6.15-.37,5.42-1.52,7.65-4.1,3.49-5.36,5.66-.88,5.36-2.24,7.47-4.41,3.09-5.87,5.13-1.39,5.25-2.94,7.22-4.68,2.65-6.33,4.55-1.87,5.09-3.61,6.91-4.91,2.2-6.73,3.93-2.35,4.89-4.25,6.54-5.1,1.72-7.07,3.28-2.8,4.65-4.85,6.11-5.24,1.23-7.35,2.59-3.22,4.36-5.4,5.62-5.33.73-7.56,1.88-3.62,4-5.91,5.08-5.37.22-7.71,1.15-4,3.67-6.37,4.49-5.37-.3-7.78.41-4.32,3.27-6.77,3.86-5.31-.81-7.79-.34-4.61,2.84-7.11,3.19-5.21-1.32-7.72-1.08-4.86,2.39-7.38,2.51-5.06-1.8-7.59-1.8-5.09,1.92-7.59,1.8-4.89-2.27-7.38-2.51-5.24,1.43-7.72,1.08-4.65-2.72-7.11-3.19-5.35.93-7.79.34-4.37-3.15-6.77-3.86-5.42.41-7.79-.41-4-3.56-6.37-4.49-5.43-.11-7.71-1.15-3.68-3.93-5.91-5.08-5.39-.63-7.57-1.88-3.29-4.26-5.4-5.62-5.31-1.14-7.35-2.59-2.87-4.55-4.85-6.11-5.17-1.63-7.07-3.28-2.43-4.8-4.25-6.54-5-2.11-6.73-3.93-2-5-3.61-6.91-4.77-2.57-6.33-4.55-1.48-5.17-2.94-7.22-4.51-3-5.87-5.13-1-5.29-2.24-7.47-4.2-3.43-5.36-5.66-.47-5.36-1.52-7.65-3.85-3.81-4.79-6.15,0-5.38-.78-7.76S7.73,207.34,7,204.92s.56-5.34,0-7.8-3.06-4.47-3.53-7,1.07-5.27.71-7.76-2.61-4.74-2.85-7.26,1.56-5.14,1.44-7.66S.61,162.53.61,160s2-5,2.16-7.49-1.68-5.17-1.44-7.66,2.5-4.78,2.85-7.26-1.18-5.3-.71-7.76,2.94-4.52,3.53-7-.67-5.39,0-7.8,3.36-4.21,4.18-6.58-.15-5.43.78-7.76,3.75-3.87,4.79-6.15.37-5.42,1.52-7.65,4.1-3.49,5.36-5.66.88-5.36,2.24-7.47,4.41-3.09,5.87-5.13,1.39-5.25,2.94-7.22,4.68-2.65,6.33-4.55,1.87-5.09,3.61-6.91,4.91-2.2,6.73-3.93,2.35-4.89,4.25-6.54,5.1-1.72,7.07-3.28,2.8-4.65,4.85-6.11,5.24-1.23,7.35-2.59,3.22-4.36,5.4-5.62,5.33-.73,7.56-1.88,3.62-4,5.91-5.08,5.37-.22,7.71-1.15,4-3.67,6.37-4.49,5.37.3,7.78-.41,4.32-3.27,6.77-3.86,5.31.81,7.79.34,4.61-2.84,7.11-3.19,5.21,1.32,7.72,1.08S149.89.9,152.41.78s5.06,1.8,7.59,1.8,5.09-1.92,7.59-1.8,4.89,2.27,7.38,2.51,5.24-1.43,7.72-1.08,4.65,2.72,7.11,3.19,5.35-.93,7.79-.34,4.37,3.15,6.77,3.86,5.42-.41,7.79.41,4,3.56,6.37,4.49,5.43.11,7.71,1.15,3.68,3.93,5.91,5.08,5.39.63,7.57,1.88,3.29,4.26,5.4,5.62,5.31,1.14,7.35,2.59,2.87,4.55,4.85,6.11,5.17,1.63,7.07,3.28,2.43,4.8,4.25,6.54,5,2.11,6.73,3.93,2,5,3.61,6.91,4.77,2.57,6.33,4.55,1.48,5.17,2.94,7.22,4.51,3,5.87,5.13,1,5.29,2.24,7.47,4.2,3.43,5.36,5.66.47,5.36,1.52,7.65,3.85,3.81,4.79,6.15,0,5.38.78,7.76,3.47,4.16,4.18,6.58-.56,5.34,0,7.8,3.06,4.47,3.53,7-1.07,5.27-.71,7.76,2.61,4.74,2.85,7.26-1.56,5.14-1.44,7.66S319.39,157.47,319.39,160Z"/></symbol>

        <symbol id="ball-400" viewBox="0 0 400 400"><path d="M399.39,200c0,3.17-2.06,6.27-2.2,9.4s1.61,6.44,1.31,9.56-2.64,6-3.08,9.15,1,6.56.4,9.64-3.2,5.76-3.94,8.81.36,6.62-.52,9.64-3.74,5.43-4.76,8.39-.27,6.63-1.44,9.54-4.24,5-5.54,7.9-.91,6.57-2.35,9.36-4.7,4.61-6.27,7.33-1.53,6.45-3.23,9.09-5.12,4.14-6.94,6.7-2.13,6.27-4.08,8.75-5.48,3.64-7.55,6-2.71,6-4.89,8.32-5.8,3.1-8.08,5.28-3.27,5.76-5.65,7.82-6.07,2.54-8.54,4.49-3.8,5.42-6.37,7.25-6.28,2-8.93,3.66-4.3,5-7,6.62-6.44,1.35-9.24,2.79-4.76,4.6-7.62,5.92-6.53.73-9.46,1.9-5.17,4.13-8.15,5.16-6.57.1-9.6,1-5.54,3.61-8.61,4.35-6.55-.53-9.65.06-5.86,3.07-9,3.51-6.46-1.16-9.61-.86-6.12,2.49-9.28,2.64-6.32-1.76-9.49-1.76-6.36,1.91-9.49,1.76-6.16-2.35-9.28-2.64-6.51,1.3-9.61.86-5.91-2.92-9-3.51-6.6.68-9.65-.06-5.6-3.47-8.61-4.35-6.63,0-9.6-1-5.24-4-8.15-5.16-6.6-.59-9.46-1.9-4.83-4.47-7.62-5.92-6.52-1.22-9.24-2.79-4.38-4.91-7-6.62-6.37-1.83-8.93-3.66-3.89-5.31-6.37-7.25-6.17-2.43-8.54-4.49-3.37-5.65-5.65-7.82-5.91-3-8.08-5.28-2.82-5.94-4.89-8.32-5.6-3.54-7.55-6-2.25-6.18-4.08-8.75-5.24-4.05-6.94-6.7-1.65-6.37-3.23-9.09-4.83-4.53-6.27-7.33-1-6.49-2.35-9.36-4.37-5-5.54-7.9-.41-6.56-1.44-9.54-3.87-5.36-4.76-8.39.22-6.57-.52-9.64-3.34-5.71-3.94-8.81.85-6.51.4-9.64-2.78-6-3.08-9.15,1.46-6.4,1.31-9.56S.61,203.17.61,200s2.06-6.27,2.2-9.4S1.2,184.16,1.5,181s2.64-6,3.08-9.15-1-6.56-.4-9.64,3.2-5.76,3.94-8.81-.36-6.62.52-9.64,3.74-5.43,4.76-8.39.27-6.63,1.44-9.54,4.24-5,5.54-7.9.91-6.57,2.35-9.36,4.7-4.61,6.27-7.33,1.53-6.45,3.23-9.09,5.12-4.14,6.94-6.7,2.13-6.27,4.08-8.75,5.48-3.64,7.55-6,2.71-6,4.89-8.32,5.8-3.1,8.08-5.28,3.27-5.76,5.65-7.82,6.07-2.54,8.54-4.49,3.8-5.42,6.37-7.25,6.28-2,8.93-3.66,4.3-5,7-6.62,6.44-1.35,9.24-2.79,4.76-4.6,7.62-5.92,6.53-.73,9.46-1.9,5.17-4.13,8.15-5.16,6.57-.1,9.6-1,5.54-3.61,8.61-4.35,6.55.53,9.65-.06,5.86-3.07,9-3.51,6.46,1.16,9.61.86S187.35,1,190.51.83s6.32,1.76,9.49,1.76S206.36.68,209.49.83s6.16,2.35,9.28,2.64,6.51-1.3,9.61-.86,5.91,2.92,9,3.51,6.6-.68,9.65.06,5.6,3.47,8.61,4.35,6.63,0,9.6,1,5.24,4,8.15,5.16,6.6.59,9.46,1.9,4.83,4.47,7.62,5.92,6.52,1.22,9.24,2.79,4.38,4.91,7,6.62,6.37,1.83,8.93,3.66,3.89,5.31,6.37,7.25,6.17,2.43,8.54,4.49,3.37,5.65,5.65,7.82,5.91,3,8.08,5.28,2.82,5.94,4.89,8.32,5.6,3.54,7.55,6,2.25,6.18,4.08,8.75,5.24,4.05,6.94,6.7,1.65,6.37,3.23,9.09,4.83,4.53,6.27,7.33,1,6.49,2.35,9.36,4.37,5,5.54,7.9.41,6.56,1.44,9.54,3.87,5.36,4.76,8.39-.22,6.57.52,9.64,3.34,5.71,3.94,8.81-.85,6.51-.4,9.64,2.78,6,3.08,9.15-1.46,6.4-1.31,9.56S399.39,196.83,399.39,200Z"/></symbol>

        <symbol id="cap-curve" viewBox="0 0 560 80"><path d="M556,80a14.22,14.22,0,0,1-4.38-1.43c-2.39-1.47-3.76-4.63-6.18-6.06s-5.85-1.11-8.29-2.51-3.91-4.51-6.37-5.86-5.88-.93-8.36-2.24-4.05-4.38-6.56-5.65-5.91-.73-8.43-2-4.19-4.24-6.74-5.44-5.93-.54-8.49-1.69-4.33-4.11-6.91-5.21-5.94-.35-8.54-1.41-4.46-4-7.08-5-5.95-.15-8.58-1.13-4.59-3.81-7.24-4.75-6,0-8.62-.85-4.71-3.66-7.39-4.51-5.95.23-8.64-.57-4.82-3.51-7.53-4.27-5.94.43-8.65-.29-4.94-3.35-7.67-4-5.92.62-8.66,0-5-3.18-7.79-3.77-5.89.82-8.65.27-5.14-3-7.91-3.51-5.86,1-8.64.56-5.24-2.85-8-3.25-5.83,1.19-8.62.84-5.33-2.68-8.12-3-5.79,1.38-8.59,1.11S325,1.88,322.16,1.66,316.42,3.23,313.62,3,308.13.71,305.32.58s-5.69,1.75-8.5,1.66S291.26.09,288.44,0,282.82,2,280,2,274.37,0,271.57,0s-5.57,2.11-8.37,2.2-5.7-1.8-8.5-1.66-5.5,2.29-8.3,2.46-5.75-1.61-8.55-1.39-5.42,2.46-8.22,2.73S223.84,3,221,3.27s-5.34,2.64-8.12,3-5.84-1.24-8.62-.84-5.25,2.81-8,3.26-5.88-1-8.64-.56-5.16,3-7.91,3.51-5.91-.86-8.65-.28-5.06,3.14-7.79,3.77-5.93-.66-8.66,0-5,3.3-7.67,4-6-.47-8.65.29-4.84,3.47-7.53,4.27-6-.28-8.64.57-4.73,3.62-7.39,4.51-6-.08-8.62.85-4.61,3.77-7.24,4.75-6,.11-8.58,1.13-4.48,3.92-7.08,5-6,.31-8.54,1.41S70.36,46,67.8,47.16s-5.95.5-8.49,1.69-4.21,4.2-6.74,5.43-5.93.69-8.43,2-4.08,4.34-6.56,5.65-5.9.89-8.36,2.24S25.29,68.6,22.85,70,17,71.07,14.57,72.5s-3.79,4.59-6.18,6.06A14.25,14.25,0,0,1,4,80Z"/></symbol>

        <symbol id="arrow-right" viewBox="0 0 16 12"><path d="M16,6,0,12V0Z"/></symbol>

        <symbol id="arrow-down" viewBox="0 0 12 16"><path d="M6,16,0,0H12Z"/></symbol>

        <symbol id="icon-cart" viewBox="0 0 40 40"><path d="M35.93,12.37,11,9.61l-.35-3.47A1,1,0,0,0,10,5.25l-5-1.59a1.38,1.38,0,0,0-1.74.9h0A1.37,1.37,0,0,0,4.1,6.28L8.05,7.51l1.5,15.07-1,5.62a1,1,0,0,0,1,1.23H32.91a1.38,1.38,0,0,0,1.38-1.37h0a1.37,1.37,0,0,0-1.38-1.37H11.61l.58-3.25H34.25a1,1,0,0,0,1-.87l1.57-9A1,1,0,0,0,35.93,12.37Z"/><path d="M15.49,33.64a2.78,2.78,0,1,1-2.78-2.76A2.77,2.77,0,0,1,15.49,33.64Z"/><path d="M32,33.64a2.78,2.78,0,1,1-2.78-2.76A2.77,2.77,0,0,1,32,33.64Z"/></symbol>

        <symbol id="icon-facebook" viewBox="0 0 40 40"><path d="M22.39,36V21.4H27.1l.71-5.69H22.39V12.09c0-1.65.44-2.77,2.72-2.77H28V4.23A37.65,37.65,0,0,0,23.77,4c-4.18,0-7,2.65-7,7.52v4.19H12V21.4h4.73V36Z"/></symbol>

        <symbol id="icon-instagram" viewBox="0 0 40 40"><circle cx="20" cy="20" r="5.58"/><path d="M33.06,10.12a5.55,5.55,0,0,0-3.18-3.18,9.27,9.27,0,0,0-3.11-.58c-1.77-.08-2.3-.1-6.77-.1s-5,0-6.77.1a9.27,9.27,0,0,0-3.11.58,5.55,5.55,0,0,0-3.18,3.18,9.27,9.27,0,0,0-.58,3.11c-.08,1.77-.1,2.3-.1,6.77s0,5,.1,6.77a9.27,9.27,0,0,0,.58,3.11,5.55,5.55,0,0,0,3.18,3.18,9.27,9.27,0,0,0,3.11.58c1.77.08,2.3.1,6.77.1s5,0,6.77-.1a9.27,9.27,0,0,0,3.11-.58,5.55,5.55,0,0,0,3.18-3.18,9.27,9.27,0,0,0,.58-3.11c.08-1.77.1-2.3.1-6.77s0-5-.1-6.77A9.27,9.27,0,0,0,33.06,10.12ZM20,28.6A8.6,8.6,0,1,1,28.6,20,8.6,8.6,0,0,1,20,28.6Zm8.94-15.53a2,2,0,1,1,2-2A2,2,0,0,1,28.94,13.07Z"/><path d="M0,0V40H40V0ZM36.65,26.91A12.3,12.3,0,0,1,35.87,31a8.57,8.57,0,0,1-4.9,4.9,12.3,12.3,0,0,1-4.07.78c-1.79.08-2.36.1-6.91.1s-5.12,0-6.91-.1A12.3,12.3,0,0,1,9,35.87,8.57,8.57,0,0,1,4.13,31a12.3,12.3,0,0,1-.78-4.07c-.08-1.79-.1-2.36-.1-6.91s0-5.12.1-6.91A12.3,12.3,0,0,1,4.13,9,8.57,8.57,0,0,1,9,4.13a12.3,12.3,0,0,1,4.07-.78c1.79-.08,2.36-.1,6.91-.1s5.12,0,6.91.1A12.3,12.3,0,0,1,31,4.13,8.57,8.57,0,0,1,35.87,9a12.3,12.3,0,0,1,.78,4.07c.08,1.79.1,2.36.1,6.91S36.73,25.12,36.65,26.91Z"/></symbol>
      </defs>
    </svg>