<svg id="レイヤー_1" data-name="レイヤー 1" xmlns="http://www.w3.org/2000/svg" width="200" height="56" viewBox="0 0 200 56"><defs><style>.cls-1{fill:#222;}</style></defs><title>logo_beans</title><path class="cls-1" d="M9.05,14q0-3.43-.2-5.68A8.34,8.34,0,0,0,7.79,4.7a5,5,0,0,0-2.49-2,16.5,16.5,0,0,0-4.58-.9v-1Q3.25.94,5.7,1t5,.08Q14,1.1,17.23.78t7-.33a38.13,38.13,0,0,1,7.24.74,23.71,23.71,0,0,1,7,2.49,16,16,0,0,1,5.31,4.7,12.24,12.24,0,0,1,2.13,7.36,10.56,10.56,0,0,1-2.33,6.66,12,12,0,0,1-5.76,4.13v.16a18.56,18.56,0,0,1,8.79,5.52q3.15,3.72,3.15,9.85a11.18,11.18,0,0,1-1.64,6.25,12.25,12.25,0,0,1-4.33,4,19.42,19.42,0,0,1-6.13,2.13,39.92,39.92,0,0,1-7,.61q-5.64,0-11.08-.41T8.48,54.24q-1.88,0-3.8.08t-3.8.25v-1a16.22,16.22,0,0,0,4.5-.9,4.81,4.81,0,0,0,2.45-2,8.74,8.74,0,0,0,1-3.64q.2-2.25.2-5.68Zm7.36,10.3a15.7,15.7,0,0,0,4.5,1.55,26.36,26.36,0,0,0,4.66.41,13.12,13.12,0,0,0,8.71-2.9q3.47-2.9,3.47-8.38a10.68,10.68,0,0,0-1.14-5,12.47,12.47,0,0,0-3-3.8,13.48,13.48,0,0,0-4.37-2.45A15.84,15.84,0,0,0,24,2.9q-2,0-3.84.16a15.54,15.54,0,0,0-3.76.82Zm0,25.51A2.78,2.78,0,0,0,17.92,51a17.71,17.71,0,0,0,2.78.86,30,30,0,0,0,3.39.57,30.43,30.43,0,0,0,3.43.2q6.62,0,10.34-3.47T41.59,39a10.82,10.82,0,0,0-2.21-6.58,21.26,21.26,0,0,0-5.07-4.95q-2,.33-3.92.61a27.63,27.63,0,0,1-4,.29,45,45,0,0,1-5.07-.29,20.09,20.09,0,0,1-4.91-1.19Z"/><path class="cls-1" d="M62.19,37.07a19.21,19.21,0,0,0,1.1,7,12.52,12.52,0,0,0,2.78,4.41,9.57,9.57,0,0,0,3.6,2.29,11.07,11.07,0,0,0,3.56.65,16.71,16.71,0,0,0,6.21-1.1,15.24,15.24,0,0,0,5.15-3.47L86,48.19a26.84,26.84,0,0,1-6.87,5.48,17.63,17.63,0,0,1-8.42,1.88,13.88,13.88,0,0,1-6.29-1.39,15,15,0,0,1-4.74-3.68,16,16,0,0,1-3-5.23,18.42,18.42,0,0,1,0-12.1,16,16,0,0,1,3-5.23,15,15,0,0,1,4.74-3.68,13.89,13.89,0,0,1,6.29-1.39q6.46,0,10.38,3.52T85.9,37.07Zm15.94-2.45a34.55,34.55,0,0,0-.65-4,7.71,7.71,0,0,0-1.31-2.94,5.63,5.63,0,0,0-2.37-1.8A9.86,9.86,0,0,0,70,25.3a6,6,0,0,0-3.15.86,8.6,8.6,0,0,0-2.45,2.21,9.93,9.93,0,0,0-1.55,3,10.65,10.65,0,0,0-.53,3.23Z"/><path class="cls-1" d="M94.4,30.37a11,11,0,0,1,1.84-4A8.06,8.06,0,0,1,99,24a10.16,10.16,0,0,1,3.52-1,40.51,40.51,0,0,1,4.17-.2,20,20,0,0,1,4.21.45,11.5,11.5,0,0,1,3.76,1.51,8.14,8.14,0,0,1,2.7,2.82,8.42,8.42,0,0,1,1,4.29V47a4.7,4.7,0,0,0,.82,2.74A2.86,2.86,0,0,0,121.7,51a4.74,4.74,0,0,0,2.9-.94q1.27-.94,2.41-1.84l.82.9L125.92,51q-1.1,1.1-2.33,2.13a15.68,15.68,0,0,1-2.49,1.72,5.17,5.17,0,0,1-2.49.69,3.39,3.39,0,0,1-1.72-.53,12.4,12.4,0,0,1-1.76-1.27,17.27,17.27,0,0,1-1.59-1.55q-.74-.82-1.31-1.39a37.61,37.61,0,0,1-5.89,3.27A15.48,15.48,0,0,1,100,55.55,9.74,9.74,0,0,1,96.65,55a8.81,8.81,0,0,1-2.82-1.64,8.12,8.12,0,0,1-2-2.53,7.39,7.39,0,0,1-.74-3.35A7.51,7.51,0,0,1,93,42.1,12.11,12.11,0,0,1,97.87,39a28.45,28.45,0,0,1,6.79-1.43q3.8-.37,7.64-.45V30.94a5.85,5.85,0,0,0-1.88-4.66,7,7,0,0,0-4.74-1.64,3.74,3.74,0,0,0-3.35,2.13,9.48,9.48,0,0,0-1.23,4.82Zm17.74,10a20.73,20.73,0,0,0-5.48-.74,13.44,13.44,0,0,0-3.11.37,8.5,8.5,0,0,0-2.78,1.19,6.66,6.66,0,0,0-2,2.08A5.76,5.76,0,0,0,98,46.31a4.29,4.29,0,0,0,1.92,4,8,8,0,0,0,4.29,1.19A10.71,10.71,0,0,0,109,50.4a21,21,0,0,0,3.15-1.8Z"/><path class="cls-1" d="M130.62,25.14l11.94-1.8v4.33a37,37,0,0,1,5.07-3.27,11.5,11.5,0,0,1,5.48-1.55,16.48,16.48,0,0,1,4.37.57,10.24,10.24,0,0,1,3.72,1.88,9.17,9.17,0,0,1,2.62,3.52,13.5,13.5,0,0,1,1,5.48V48.68q0,2.7,1.47,3.56a13.22,13.22,0,0,0,4.25,1.35v1q-2.37-.16-5.07-.25T160,54.24q-1.88,0-3.64.08t-3.39.25v-1a12.51,12.51,0,0,0,4-1.35q1.43-.86,1.43-3.56V35.52a10.41,10.41,0,0,0-1.76-6.46q-1.76-2.29-5.68-2.29a10.69,10.69,0,0,0-2.86.41,12,12,0,0,0-2.7,1.1,9.5,9.5,0,0,0-2,1.51,2.3,2.3,0,0,0-.82,1.55V48.68q0,2.7,1.55,3.56a14.79,14.79,0,0,0,4.66,1.35v1q-2.78-.16-5.52-.25t-5.52-.08q-1.88,0-3.64.08t-3.64.25v-1a13.23,13.23,0,0,0,4.25-1.35q1.47-.86,1.47-3.56v-19q0-2.45-1.68-3a12,12,0,0,0-3.88-.57Z"/><path class="cls-1" d="M174.11,43.86h1.14a32.11,32.11,0,0,0,2.58,3.35A21.29,21.29,0,0,0,181,50.15a16.52,16.52,0,0,0,3.68,2.13,10.72,10.72,0,0,0,4.17.82,11.84,11.84,0,0,0,2.17-.2,6.71,6.71,0,0,0,2-.69,4.26,4.26,0,0,0,1.47-1.31,3.48,3.48,0,0,0,.57-2,4.23,4.23,0,0,0-1.51-3.35,14.92,14.92,0,0,0-3.72-2.29,49.55,49.55,0,0,0-4.86-1.84,29.21,29.21,0,0,1-4.86-2,13.24,13.24,0,0,1-3.72-2.9A6.43,6.43,0,0,1,174.84,32a8.49,8.49,0,0,1,2.74-6.79,10.18,10.18,0,0,1,6.91-2.37,22.09,22.09,0,0,1,6,.82,27.33,27.33,0,0,0,6,1l.49,8.67h-1.06a16.46,16.46,0,0,0-4.78-5.52,15.05,15.05,0,0,0-3.23-1.8,9.31,9.31,0,0,0-3.52-.69,7.51,7.51,0,0,0-3.68.9,3.4,3.4,0,0,0-1.64,3.27,3.35,3.35,0,0,0,1.51,2.82,18.77,18.77,0,0,0,3.72,2q2.21.94,4.86,1.84a27.52,27.52,0,0,1,4.86,2.17,13.41,13.41,0,0,1,3.72,3.11A6.91,6.91,0,0,1,199.28,46a10.32,10.32,0,0,1-.94,4.7,7.4,7.4,0,0,1-2.58,2.9A11.06,11.06,0,0,1,192,55.1a22.76,22.76,0,0,1-4.62.45,23.92,23.92,0,0,1-3.76-.29q-1.8-.29-3.39-.69t-3-.74q-1.39-.33-2.45-.49Z"/></svg>