<svg id="レイヤー_1" data-name="レイヤー 1" xmlns="http://www.w3.org/2000/svg" width="340" height="114" viewBox="0 0 340 114"><defs><style>.cls-1{fill:#65bbb1;}</style></defs><title>txt_sukusukuball</title><path class="cls-1" d="M98.63,82.52l12.1-1.14a14.64,14.64,0,0,1,3.5.09,9,9,0,0,1,3.17,1.08A7.07,7.07,0,0,1,121,88.32a6.44,6.44,0,0,1-1.08,4.49,8.32,8.32,0,0,1-3.67,2.83v.09a8.16,8.16,0,0,1,5,1.83,6.88,6.88,0,0,1,2.36,4.88,8.47,8.47,0,0,1-.61,4.38,8.13,8.13,0,0,1-2.39,3,11.44,11.44,0,0,1-3.63,1.87,20.4,20.4,0,0,1-4.27.87l-11.18,1.05Zm6.7,12.15,4.91-.46a6.9,6.9,0,0,0,4.11-1.5,3.7,3.7,0,0,0,1.15-3.26,3.2,3.2,0,0,0-1.77-2.85,9.51,9.51,0,0,0-4.73-.44l-4.43.42Zm1.29,13.81,5-.46a18.83,18.83,0,0,0,2.26-.37,7.51,7.51,0,0,0,2.2-.85,4.47,4.47,0,0,0,1.58-1.57,4.09,4.09,0,0,0,.45-2.53,3.65,3.65,0,0,0-2-3.27,10.34,10.34,0,0,0-5.13-.49l-5.17.49Z"/><path class="cls-1" d="M151,78.94l4.8-.13,14.24,30.91-6.34.17-3.09-7.08-13.51.36-2.63,7.23-6.21.16Zm7.55,19.16L153.44,85.5l-4.55,12.85Z"/><path class="cls-1" d="M187.33,78.8l5.54.2-1,26.31,13.24.48-.18,4.94-18.78-.69Z"/><path class="cls-1" d="M227.41,81l5.52.54-2.56,26.2,13.19,1.29-.48,4.93-18.71-1.84Z"/><path class="cls-1" d="M16.22,25.85a6.76,6.76,0,0,0-2.89-1.23A7.37,7.37,0,0,0,10,24.7a7.89,7.89,0,0,0-1.81.73A5.86,5.86,0,0,0,6.68,26.6a4.15,4.15,0,0,0-.92,1.61,3.67,3.67,0,0,0,0,2,3.52,3.52,0,0,0,.88,1.64,4,4,0,0,0,1.49.93,8.26,8.26,0,0,0,2,.42c.78.07,1.62.12,2.54.15s2.14.15,3.28.28a12,12,0,0,1,3.27.83A8.08,8.08,0,0,1,22,36.42a7.84,7.84,0,0,1,1.8,3.5,9.84,9.84,0,0,1,.22,4.49A9.06,9.06,0,0,1,22.46,48a10.48,10.48,0,0,1-3,2.71,15.23,15.23,0,0,1-4.06,1.71,16.31,16.31,0,0,1-6,.42,11.44,11.44,0,0,1-5.44-2l2.9-4.6a8,8,0,0,0,3.6,1.66,8.61,8.61,0,0,0,3.87-.06,8.46,8.46,0,0,0,1.86-.74,5.32,5.32,0,0,0,1.56-1.25,4.58,4.58,0,0,0,.91-1.73,4.16,4.16,0,0,0-.05-2.2,3.49,3.49,0,0,0-1.07-1.84,5.15,5.15,0,0,0-1.85-1,11.12,11.12,0,0,0-2.48-.42l-2.92-.2a27,27,0,0,1-3-.31,9.31,9.31,0,0,1-2.86-.94,7.84,7.84,0,0,1-2.4-2A8.51,8.51,0,0,1,.38,31.93,8.09,8.09,0,0,1,.3,27.7a8.8,8.8,0,0,1,1.79-3.42A11.6,11.6,0,0,1,5.2,21.73a15.88,15.88,0,0,1,3.88-1.59A14.81,14.81,0,0,1,14,19.73a11.78,11.78,0,0,1,4.74,1.36Z"/><path class="cls-1" d="M67.64,28.59a12.9,12.9,0,0,1,0,5.19,11.46,11.46,0,0,1-1.89,4.29,11.64,11.64,0,0,1-3.45,3.14A14.78,14.78,0,0,1,52.5,43a11.83,11.83,0,0,1-4.36-1.68A11,11,0,0,1,44.84,38,13.14,13.14,0,0,1,43,33.21L39.36,13.75l5.45-1L48.39,32a10.66,10.66,0,0,0,.84,2.61,6.66,6.66,0,0,0,1.59,2.15A6,6,0,0,0,53.25,38a8.67,8.67,0,0,0,6.53-1.22,6.05,6.05,0,0,0,1.81-2.09,6.7,6.7,0,0,0,.71-2.58,10.7,10.7,0,0,0-.15-2.74L58.58,10.16l5.45-1Z"/><path class="cls-1" d="M86.79,5.79l5.51-.61,1.48,13.44.13,0L105.38,3.73l7.44-.83-12.9,16,17.29,15-7.74.86L94.14,20.66H94l1.72,15.59-5.51.61Z"/><path class="cls-1" d="M158.83,20.29a12.92,12.92,0,0,1-.77,5.14,11.46,11.46,0,0,1-2.49,4A11.65,11.65,0,0,1,151.7,32a14.81,14.81,0,0,1-9.94.38,11.88,11.88,0,0,1-4.07-2.3,11,11,0,0,1-2.79-3.76,13.18,13.18,0,0,1-1.14-5.06L133,1.47l5.54-.21.74,19.55a10.67,10.67,0,0,0,.45,2.7A6.66,6.66,0,0,0,141,25.88a6,6,0,0,0,2.22,1.64,8.69,8.69,0,0,0,6.64-.26,6,6,0,0,0,2.09-1.8A6.69,6.69,0,0,0,153,23a10.76,10.76,0,0,0,.25-2.73L152.54.72l5.54-.21Z"/><path class="cls-1" d="M196.62,7.51a6.76,6.76,0,0,0-2.43-2A7.43,7.43,0,0,0,191,4.65a8,8,0,0,0-1.94.19,5.92,5.92,0,0,0-1.78.7,4.15,4.15,0,0,0-1.34,1.29,3.65,3.65,0,0,0-.56,1.95,3.52,3.52,0,0,0,.39,1.82,4,4,0,0,0,1.17,1.31,8.22,8.22,0,0,0,1.84,1q1.09.43,2.4.86,1.48.53,3.07,1.19a12,12,0,0,1,2.9,1.72,8.07,8.07,0,0,1,2.13,2.63,7.83,7.83,0,0,1,.75,3.87A9.84,9.84,0,0,1,199,27.54a9.07,9.07,0,0,1-2.55,3,10.53,10.53,0,0,1-3.66,1.75,15.19,15.19,0,0,1-4.37.49,16.3,16.3,0,0,1-5.91-1.3A11.51,11.51,0,0,1,177.8,28l4.07-3.59a8,8,0,0,0,3,2.6,8.11,8.11,0,0,0,5.72.85,5.26,5.26,0,0,0,1.85-.76,4.58,4.58,0,0,0,1.36-1.4,4.18,4.18,0,0,0,.57-2.13,3.5,3.5,0,0,0-.51-2.07,5.09,5.09,0,0,0-1.5-1.46,11.07,11.07,0,0,0-2.26-1.1l-2.75-1a27,27,0,0,1-2.79-1.14,9.31,9.31,0,0,1-2.48-1.71,7.88,7.88,0,0,1-1.75-2.55,8.57,8.57,0,0,1-.6-3.71,8.1,8.1,0,0,1,1.11-4.08A8.75,8.75,0,0,1,183.5,2,11.55,11.55,0,0,1,187.2.46,16,16,0,0,1,191.38,0a14.86,14.86,0,0,1,4.79,1,11.83,11.83,0,0,1,4.17,2.64Z"/><path class="cls-1" d="M245.23,24.5a12.91,12.91,0,0,1-1.45,5,11.44,11.44,0,0,1-3,3.59,11.62,11.62,0,0,1-4.18,2.06,14.77,14.77,0,0,1-9.9-1A11.87,11.87,0,0,1,223,31.34a11,11,0,0,1-2.26-4.1,13.14,13.14,0,0,1-.45-5.17l1.91-19.7,5.52.54-1.88,19.48a10.69,10.69,0,0,0,.09,2.74,6.68,6.68,0,0,0,.93,2.51,6,6,0,0,0,2,1.92,8.67,8.67,0,0,0,6.62.64,6,6,0,0,0,2.31-1.5,6.69,6.69,0,0,0,1.39-2.28,10.69,10.69,0,0,0,.61-2.67l1.88-19.48,5.52.54Z"/><path class="cls-1" d="M269.93,7.9l5.47.94-2.28,13.32.13,0,15.12-11.11,7.38,1.28-16.8,11.76,12.47,19.23L283.74,42,272.89,24.24l-.13,0-2.65,15.45-5.47-.94Z"/><path class="cls-1" d="M335.14,42A12.9,12.9,0,0,1,333,46.67a11.43,11.43,0,0,1-3.5,3.1A11.6,11.6,0,0,1,325,51.18a14.8,14.8,0,0,1-9.65-2.43,11.91,11.91,0,0,1-3.27-3.35,11,11,0,0,1-1.62-4.4,13.14,13.14,0,0,1,.32-5.18l4.8-19.19L321,18l-4.75,19a10.71,10.71,0,0,0-.32,2.72,6.68,6.68,0,0,0,.55,2.62,6,6,0,0,0,1.67,2.2,8.69,8.69,0,0,0,6.45,1.63A6.07,6.07,0,0,0,327.1,45a6.66,6.66,0,0,0,1.72-2.05,10.71,10.71,0,0,0,1-2.55l4.75-19,5.38,1.36Z"/></svg>