<svg id="レイヤー_1" data-name="レイヤー 1" xmlns="http://www.w3.org/2000/svg" width="110" height="88" viewBox="0 0 110 88"><defs><style>.cls-1{fill:#f28e2d;}.cls-2{fill:#d79f56;}</style></defs><title>ico_btn_allergy</title><path class="cls-1" d="M44.84,20.39c2-3.74,2.46-7.54,1.36-9.5C46.86,7.6,50.66,1,50.66,1S47,7.42,44,9.56c-2.28-.05-5.36,2.53-7.45,6.45s-2.52,8.07-1.11,9.88L.76,85.95a.71.71,0,0,0,.25,1H1a.72.72,0,0,0,1-.27L36.65,26.72C39,27.46,42.52,24.76,44.84,20.39Z"/><path class="cls-1" d="M32.72,60.51C31,59.07,27,59.23,23,61.08c-4.73,2.18-7.71,5.86-6.65,8.23s5.74,2.52,10.46.34c3.83-1.76,6.51-4.51,6.83-6.75,2.51-2.23,9.51-5.18,9.51-5.18S36.3,60.59,32.72,60.51Z"/><path class="cls-1" d="M8.08,46.28C6.22,43.23,5.3,35.89,5.3,35.89s.94,7.54.27,10.82c-1.78,1.4-2.82,5.1-2.43,9.29.48,5.18,3,9.16,5.53,8.89s4.28-4.69,3.8-9.88C12.05,50.61,10.2,47.08,8.08,46.28Z"/><path class="cls-1" d="M40.79,46.53c-1.75-1.44-5.74-1.28-9.76.57-4.73,2.18-7.7,5.86-6.65,8.23s5.74,2.52,10.46.34c3.83-1.76,6.51-4.51,6.83-6.75,2.51-2.23,9.51-5.18,9.51-5.18S44.37,46.61,40.79,46.53Z"/><path class="cls-1" d="M16.15,32.3c-1.86-3.06-2.78-10.4-2.78-10.4s.94,7.54.27,10.82c-1.78,1.4-2.82,5.1-2.43,9.29.48,5.18,3,9.16,5.53,8.89S21,46.22,20.53,41C20.12,36.63,18.28,33.1,16.15,32.3Z"/><path class="cls-1" d="M32.72,42.17c1.47,2.12,6.11,1.4,10.37-1.62,3.44-2.44,5.58-5.64,5.49-7.9C50.64,30,57,25.8,57,25.8s-6.18,4.09-9.72,4.68c-2-1.09-5.89-.18-9.5,2.38C33.51,35.88,31.25,40,32.72,42.17Z"/><path class="cls-1" d="M26.82,18.67C25.56,15.31,26,7.92,26,7.92s-.46,7.6-1.73,10.71c-2,1-3.7,4.49-4.09,8.7-.49,5.19,1.21,9.58,3.78,9.79s5.06-3.83,5.54-9C29.92,23.68,28.76,19.85,26.82,18.67Z"/><path class="cls-2" d="M78,56.94c5-1.79,13.83-1.13,15.3,4.43,1.59,6-5.38,5.88-8.16,7.11-3.08,1.36-7.25,4.86-11.56,2.71C67,68,70.6,59.61,78,56.94Zm3.9,10.2c.53.52,2.11-.84,3.52-1.38,1.23-.46,3.48-.25,3.42-1.19-.05-.74-2.3-1.1-4.32-.28C82.21,65.21,81.34,66.65,81.85,67.15Z"/><path class="cls-2" d="M97.93,41.13c5.28.13,12.13,4,11.35,9.66-.85,6.16-6.9,3.54-10,3.65-3.38.12-9.44,2-12.21-2.24C83.51,46.69,89.62,40.92,97.93,41.13Zm-.84,11c.29.68,2.28,0,3.79,0,1.31,0,3.32,1.06,3.63.16.24-.7-1.71-1.87-3.89-1.86C98.17,50.47,96.81,51.48,97.09,52.13Z"/><path class="cls-2" d="M70.4,41.33c5.19.95,12.77,6.17,9.3,12.17-3.13,5.4-11.2.94-14.16.21-3.62-.89-7.22.05-8.36-3.34C55.52,45.46,61.6,39.72,70.4,41.33Zm-8.78,9.36c.16.72,2.24.4,3.72.7,1.29.26,3.07,1.63,3.54.8.36-.65-1.34-2.14-3.48-2.52C63,49.24,61.47,50,61.62,50.68Z"/></svg>