<svg id="レイヤー_1" data-name="レイヤー 1" xmlns="http://www.w3.org/2000/svg" width="212" height="56" viewBox="0 0 212 56"><defs><style>.cls-1{fill:#65bbb1;}</style></defs><title>txt_voice</title><path class="cls-1" d="M.5,16.83l6.66-1.18,13.78,24.2.19,0,4.74-27.49,6.42-1.14-7.49,36L19.66,48Z"/><path class="cls-1" d="M52,25.67a19.16,19.16,0,0,1,.83-7.47,16.22,16.22,0,0,1,3.37-5.87,16.78,16.78,0,0,1,5.48-4,20.55,20.55,0,0,1,7.16-1.78,20.83,20.83,0,0,1,7.41.71,17,17,0,0,1,6,3.13,16,16,0,0,1,4.21,5.31A19.12,19.12,0,0,1,88.45,23a18.86,18.86,0,0,1-.83,7.38,16.84,16.84,0,0,1-3.39,5.95,17.35,17.35,0,0,1-5.52,4.12,19.89,19.89,0,0,1-7.22,1.86,19.58,19.58,0,0,1-7.35-.79,16.77,16.77,0,0,1-10.2-8.67A18.86,18.86,0,0,1,52,25.67Zm6.56-.48a14.46,14.46,0,0,0,1.2,5,11.71,11.71,0,0,0,2.68,3.79,11.05,11.05,0,0,0,3.87,2.35,12.43,12.43,0,0,0,9.45-.7,11,11,0,0,0,3.52-2.89,11.74,11.74,0,0,0,2.1-4.14,14.52,14.52,0,0,0,.47-5.08,14,14,0,0,0-1.19-4.84A12,12,0,0,0,78,14.88a11,11,0,0,0-3.88-2.37,11.62,11.62,0,0,0-4.86-.61,11.48,11.48,0,0,0-4.69,1.31,11,11,0,0,0-3.47,2.91,12,12,0,0,0-2.08,4.11A14,14,0,0,0,58.59,25.19Z"/><path class="cls-1" d="M109.72,6l6,.08-.46,34.08-6-.08Z"/><path class="cls-1" d="M163.23,16.86a7.74,7.74,0,0,0-3.26-3,11.74,11.74,0,0,0-9-.65A11.23,11.23,0,0,0,147,15.58a11.73,11.73,0,0,0-2.72,3.73,14,14,0,0,0-1.25,4.82,15.23,15.23,0,0,0,.38,5.15,11.53,11.53,0,0,0,2,4.16,10.46,10.46,0,0,0,3.39,2.87,11.79,11.79,0,0,0,4.65,1.31,10.45,10.45,0,0,0,4.92-.67A9.5,9.5,0,0,0,162,34.4l4.54,3.82a15.53,15.53,0,0,1-5.87,3.92A17.46,17.46,0,0,1,153,43a19.62,19.62,0,0,1-7.18-1.94,16.58,16.58,0,0,1-8.65-10.16,19.16,19.16,0,0,1-.72-7.38,18.55,18.55,0,0,1,2-7.24,16.43,16.43,0,0,1,4.35-5.26A17.26,17.26,0,0,1,148.91,8a20.76,20.76,0,0,1,7.37-.63,19.93,19.93,0,0,1,3.37.6A17.24,17.24,0,0,1,163,9.23a16.38,16.38,0,0,1,2.92,1.87,9.9,9.9,0,0,1,2.24,2.51Z"/><path class="cls-1" d="M189.35,12.3l22.15,4-.93,5.21-16.2-2.92-1.53,8.53,15.35,2.77-.9,5-15.35-2.77-1.7,9.48,17,3.08-1,5.31-23-4.15Z"/></svg>