<svg id="レイヤー_1" data-name="レイヤー 1" xmlns="http://www.w3.org/2000/svg" width="244" height="56" viewBox="0 0 244 56"><defs><style>.cls-1{fill:#65bbb1;}</style></defs><title>txt_lineup</title><path class="cls-1" d="M1.05,17,7,15.78l5.65,28.09L26.79,41l1.06,5.28L7.77,50.34Z"/><path class="cls-1" d="M41.14,9.91l6-.79,4.41,33.75-6,.79Z"/><path class="cls-1" d="M70.95,6.5l8-.4L96,30.76h.1L94.82,5.3l6-.3,1.69,34-7.67.38L77.47,13.92h-.1l1.31,26.27-6,.3Z"/><path class="cls-1" d="M125.21,5.13l22.49,1-.24,5.28L131,10.69l-.38,8.65,15.58.7L146,25.12l-15.58-.7L130,34l17.31.78L147,40.18l-23.35-1Z"/><path class="cls-1" d="M195,33.25a14,14,0,0,1-1.81,5.36,12.45,12.45,0,0,1-3.43,3.77,12.64,12.64,0,0,1-4.64,2.05,16.18,16.18,0,0,1-10.74-1.49,12.94,12.94,0,0,1-3.94-3.24,12,12,0,0,1-2.28-4.56,14.31,14.31,0,0,1-.26-5.64l2.95-21.34,6,.83-2.92,21.1a11.57,11.57,0,0,0,0,3,7.23,7.23,0,0,0,.9,2.77A6.55,6.55,0,0,0,176.89,38a9.46,9.46,0,0,0,7.18,1,6.57,6.57,0,0,0,2.59-1.53,7.24,7.24,0,0,0,1.62-2.42,11.6,11.6,0,0,0,.78-2.88L192,11.08l6,.83Z"/><path class="cls-1" d="M221.61,16.48,232.4,19a24.27,24.27,0,0,1,5,1.74,11,11,0,0,1,3.52,2.62A8.07,8.07,0,0,1,242.75,27a10.26,10.26,0,0,1-.16,4.61A9.79,9.79,0,0,1,240.47,36,8.57,8.57,0,0,1,237,38.34a12.44,12.44,0,0,1-4.48.69,23.3,23.3,0,0,1-5.07-.66l-4.53-1.07L219.65,51l-5.88-1.4Zm6.57,16.83a17.93,17.93,0,0,0,2.8.45,7.87,7.87,0,0,0,2.51-.19,4.38,4.38,0,0,0,2-1.09,4.53,4.53,0,0,0,1.18-2.29,4,4,0,0,0-1.32-4.32,7,7,0,0,0-2.13-1.22,21.55,21.55,0,0,0-2.6-.79l-4.3-1-2.25,9.5Z"/></svg>