<svg id="レイヤー_1" data-name="レイヤー 1" xmlns="http://www.w3.org/2000/svg" width="376" height="144" viewBox="0 0 376 144"><defs><style>.cls-1{fill:#65bbb1;}</style></defs><title>txt_power</title><path class="cls-1" d="M68.74,103.07l11-1.69a24.23,24.23,0,0,1,5.3-.28,11,11,0,0,1,4.25,1.09,8.06,8.06,0,0,1,3,2.64,10.19,10.19,0,0,1,1.59,4.31,9.72,9.72,0,0,1-.32,4.85,8.56,8.56,0,0,1-2.35,3.49,12.51,12.51,0,0,1-3.89,2.32,23.75,23.75,0,0,1-5,1.3l-4.6.71,2.15,13.88-6,.92Zm12.43,13.07a17.85,17.85,0,0,0,2.77-.64,7.85,7.85,0,0,0,2.26-1.12,4.37,4.37,0,0,0,1.43-1.75,4.49,4.49,0,0,0,.23-2.56A4,4,0,0,0,85,106.57a7.11,7.11,0,0,0-2.43-.33,22,22,0,0,0-2.71.25l-4.37.67L77,116.78Z"/><path class="cls-1" d="M115.22,113.55a19,19,0,0,1,.78-7.44,16.15,16.15,0,0,1,3.34-5.86,16.76,16.76,0,0,1,5.47-4A20.69,20.69,0,0,1,132,94.44a21,21,0,0,1,7.42.66,17.09,17.09,0,0,1,6.07,3.08,16,16,0,0,1,4.25,5.27,18.94,18.94,0,0,1,1.95,7.23,18.67,18.67,0,0,1-.79,7.35,16.74,16.74,0,0,1-3.36,5.94,17.35,17.35,0,0,1-5.5,4.13,20,20,0,0,1-7.22,1.89,19.63,19.63,0,0,1-7.36-.74,17.12,17.12,0,0,1-6-3.22,16.92,16.92,0,0,1-4.23-5.34A18.69,18.69,0,0,1,115.22,113.55Zm6.56-.52A14.37,14.37,0,0,0,123,118a11.66,11.66,0,0,0,2.71,3.75,11,11,0,0,0,3.89,2.31,11.7,11.7,0,0,0,4.79.56,11.84,11.84,0,0,0,4.67-1.31,11,11,0,0,0,3.5-2.9,11.67,11.67,0,0,0,2.08-4.13,14.38,14.38,0,0,0,.44-5.06,13.91,13.91,0,0,0-1.22-4.81,11.93,11.93,0,0,0-2.68-3.73,11.05,11.05,0,0,0-3.9-2.34,11.76,11.76,0,0,0-4.86-.58,11.58,11.58,0,0,0-4.69,1.33A11.09,11.09,0,0,0,124.3,104a11.91,11.91,0,0,0-2.06,4.1A13.88,13.88,0,0,0,121.78,113Z"/><path class="cls-1" d="M171.09,92.77l6.63.08,6.27,25h.1L191.89,93l6.24.08,7,25h.1l7-24.84,6.44.08-10.37,33.81-5.86-.07-7.65-25.55h-.1l-8.29,25.35-5.86-.07Z"/><path class="cls-1" d="M240.63,94.75l22.45,1.92-.45,5.25-16.42-1.4-.74,8.59L261,110.44l-.43,5.06L245,114.18l-.82,9.55,17.28,1.48-.46,5.35-23.31-2Z"/><path class="cls-1" d="M287.37,99.56,299,101.35a21.23,21.23,0,0,1,4.53,1.2,12,12,0,0,1,3.71,2.24,8.65,8.65,0,0,1,2.32,3.41,9.13,9.13,0,0,1,.35,4.66,8.66,8.66,0,0,1-3,5.63,10.53,10.53,0,0,1-6.1,2.24L307.56,137l-7.22-1.11-5.6-15.4-4.37-.67L288.19,134l-6-.92ZM296,115.67a17,17,0,0,0,2.59.2,7.4,7.4,0,0,0,2.41-.36,4.54,4.54,0,0,0,1.91-1.23,4.37,4.37,0,0,0,1-2.39,3.87,3.87,0,0,0-.27-2.34,4.66,4.66,0,0,0-1.35-1.64,6.63,6.63,0,0,0-2.05-1,15,15,0,0,0-2.32-.55l-5.41-.83-1.45,9.43Z"/><path class="cls-1" d="M20.2,35A7.36,7.36,0,0,0,17,33.67a8.1,8.1,0,0,0-3.63.07,8.76,8.76,0,0,0-2,.79A6.46,6.46,0,0,0,9.79,35.8a4.49,4.49,0,0,0-1,1.75,4,4,0,0,0,0,2.2,3.82,3.82,0,0,0,1,1.78,4.37,4.37,0,0,0,1.63,1A8.86,8.86,0,0,0,13.6,43q1.27.11,2.77.17,1.71.1,3.58.31a13.29,13.29,0,0,1,3.56.91,8.86,8.86,0,0,1,3,2.09,8.48,8.48,0,0,1,2,3.8,10.61,10.61,0,0,1,.23,4.87A9.81,9.81,0,0,1,27,59.09,11.47,11.47,0,0,1,23.68,62a16.63,16.63,0,0,1-4.43,1.84,17.86,17.86,0,0,1-6.58.45,12.54,12.54,0,0,1-5.93-2.2l3.17-5a8.71,8.71,0,0,0,3.92,1.8A9.38,9.38,0,0,0,18,58.89a9.25,9.25,0,0,0,2-.8,5.71,5.71,0,0,0,1.71-1.36,4.92,4.92,0,0,0,1-1.87,4.51,4.51,0,0,0-.05-2.39,3.79,3.79,0,0,0-1.17-2,5.64,5.64,0,0,0-2-1.06,12.22,12.22,0,0,0-2.7-.46l-3.18-.21a29.91,29.91,0,0,1-3.27-.34,10.24,10.24,0,0,1-3.12-1,8.53,8.53,0,0,1-2.61-2.12A9.23,9.23,0,0,1,2.9,41.57,8.75,8.75,0,0,1,2.83,37a9.5,9.5,0,0,1,2-3.7,12.64,12.64,0,0,1,3.4-2.76,17.44,17.44,0,0,1,4.24-1.72,16.28,16.28,0,0,1,5.32-.44,12.87,12.87,0,0,1,5.18,1.48Z"/><path class="cls-1" d="M76.32,38a13.91,13.91,0,0,1,0,5.63,12.38,12.38,0,0,1-2.07,4.65,12.67,12.67,0,0,1-3.76,3.4,16.21,16.21,0,0,1-10.67,2A13,13,0,0,1,55,51.87a12,12,0,0,1-3.6-3.6,14.21,14.21,0,0,1-2-5.25L45.48,21.9l6-1.1,3.88,20.87a11.57,11.57,0,0,0,.92,2.83A7.24,7.24,0,0,0,58,46.84a6.62,6.62,0,0,0,2.66,1.41,9.54,9.54,0,0,0,7.13-1.32,6.59,6.59,0,0,0,2-2.27,7.24,7.24,0,0,0,.77-2.8,11.6,11.6,0,0,0-.16-3L66.45,18l6-1.1Z"/><path class="cls-1" d="M97.22,13.31l6-.66,1.61,14.58H105l12.52-16.14,8.12-.89L111.55,27.5l18.86,16.29-8.45.93L105.24,29.45l-.14,0L107,46.37,101,47Z"/><path class="cls-1" d="M175.84,29A13.94,13.94,0,0,1,175,34.6a12.42,12.42,0,0,1-2.72,4.3,12.7,12.7,0,0,1-4.22,2.82,16.26,16.26,0,0,1-10.85.42,13,13,0,0,1-4.45-2.49,12,12,0,0,1-3-4.08,14.2,14.2,0,0,1-1.25-5.49l-.83-21.45,6-.23.82,21.22a11.55,11.55,0,0,0,.5,2.93,7.22,7.22,0,0,0,1.37,2.56,6.57,6.57,0,0,0,2.42,1.78,9.52,9.52,0,0,0,7.25-.28,6.57,6.57,0,0,0,2.28-2A7.22,7.22,0,0,0,169.51,32a11.5,11.5,0,0,0,.27-3L169,7.81l6-.23Z"/><path class="cls-1" d="M217,15.14A7.34,7.34,0,0,0,214.39,13a8.16,8.16,0,0,0-3.51-.94,8.88,8.88,0,0,0-2.12.21,6.5,6.5,0,0,0-1.94.76,4.53,4.53,0,0,0-1.46,1.4,4,4,0,0,0-.61,2.12,3.78,3.78,0,0,0,.43,2,4.36,4.36,0,0,0,1.28,1.43,9.07,9.07,0,0,0,2,1.06q1.19.46,2.62.93,1.62.57,3.35,1.29a13.2,13.2,0,0,1,3.17,1.86,8.84,8.84,0,0,1,2.32,2.85,8.46,8.46,0,0,1,.82,4.19,10.63,10.63,0,0,1-1.14,4.74,9.84,9.84,0,0,1-2.78,3.3,11.5,11.5,0,0,1-4,1.9,16.64,16.64,0,0,1-4.77.54,17.91,17.91,0,0,1-6.45-1.4,12.52,12.52,0,0,1-5.08-3.76l4.43-3.9a8.65,8.65,0,0,0,3.26,2.82,8.9,8.9,0,0,0,6.25.92,5.78,5.78,0,0,0,2-.83A5,5,0,0,0,214,34.93a4.5,4.5,0,0,0,.62-2.31,3.77,3.77,0,0,0-.56-2.24,5.58,5.58,0,0,0-1.64-1.58,12,12,0,0,0-2.46-1.19l-3-1.09a30,30,0,0,1-3-1.23,10.18,10.18,0,0,1-2.71-1.85,8.57,8.57,0,0,1-1.92-2.76,9.24,9.24,0,0,1-.66-4,8.76,8.76,0,0,1,1.2-4.42,9.53,9.53,0,0,1,2.92-3,12.58,12.58,0,0,1,4-1.71A17.44,17.44,0,0,1,211.31,7a16.23,16.23,0,0,1,5.23,1.05,12.9,12.9,0,0,1,4.56,2.86Z"/><path class="cls-1" d="M270.1,33.5a14,14,0,0,1-1.58,5.41,12.42,12.42,0,0,1-3.27,3.9,12.69,12.69,0,0,1-4.56,2.24,16.26,16.26,0,0,1-10.81-1A13,13,0,0,1,245.82,41a12,12,0,0,1-2.47-4.45,14.22,14.22,0,0,1-.5-5.61l2-21.37,6,.57-2,21.14a11.48,11.48,0,0,0,.1,3,7.2,7.2,0,0,0,1,2.72A6.54,6.54,0,0,0,252.18,39a9.49,9.49,0,0,0,7.22.69,6.6,6.6,0,0,0,2.52-1.64,7.21,7.21,0,0,0,1.52-2.48,11.52,11.52,0,0,0,.66-2.9l2-21.14,6,.57Z"/><path class="cls-1" d="M297,15.44l6,1-2.46,14.46.14,0,16.48-12.08,8.05,1.36L306.9,33l13.65,20.84-8.38-1.42L300.3,33.16l-.14,0L297.3,49.91l-6-1Z"/><path class="cls-1" d="M368.26,52.21a14,14,0,0,1-2.36,5.12,12.43,12.43,0,0,1-3.81,3.38,12.7,12.7,0,0,1-4.84,1.54,16.23,16.23,0,0,1-10.54-2.61A12.92,12.92,0,0,1,343.14,56a11.94,11.94,0,0,1-1.78-4.76,14.2,14.2,0,0,1,.33-5.62l5.18-20.84,5.87,1.45-5.12,20.6a11.55,11.55,0,0,0-.34,3,7.22,7.22,0,0,0,.6,2.84A6.55,6.55,0,0,0,349.72,55a9.49,9.49,0,0,0,7,1.74,6.56,6.56,0,0,0,2.74-1.25,7.29,7.29,0,0,0,1.87-2.23,11.59,11.59,0,0,0,1.08-2.77l5.12-20.61,5.87,1.45Z"/></svg>