<svg id="レイヤー_1" data-name="レイヤー 1" xmlns="http://www.w3.org/2000/svg" width="200" height="72" viewBox="0 0 200 72"><defs><style>.cls-1{fill:#222;}</style></defs><title>logo_ondo</title><path class="cls-1" d="M30.46,27.09c-6.7,0-13.37,3.18-19.54,9.58S1.18,49.92.43,57.57a16.18,16.18,0,0,0-.09,1.7A12.9,12.9,0,0,0,3.19,67.6a10,10,0,0,0,8.34,4.07c7,0,13.85-3.13,20-9.31C37.74,56,41.39,49,42.08,41.26c.05-.58.07-1.15.07-1.7a12.07,12.07,0,0,0-2.94-8.52,10.69,10.69,0,0,0-8.75-4m.2,16.72a37.52,37.52,0,0,1-4.84,16.13C23.08,64.52,20,66.7,17,66.7c-3.51,0-5.27-2.69-5.31-8.69,0-.85,0-2,.12-2.95a36.37,36.37,0,0,1,4.9-15.95c2.81-4.93,5.88-7.18,8.74-7.17,3.51,0,5.28,2.74,5.32,9C30.78,41.85,30.74,42.79,30.67,43.8Zm166.06-13a10.75,10.75,0,0,0-8.75-4c-6.71,0-13.37,3.18-19.55,9.47-6.2,6.48-9.64,13.36-10.3,21-.06.58-.08,1.15-.08,1.71a13.26,13.26,0,0,0,2.65,8.34A10,10,0,0,0,169,71.46c7,0,13.85-3.13,20-9.32,6.19-6.38,9.84-13.35,10.52-21.08.05-.6.08-1.17.08-1.73A12.11,12.11,0,0,0,196.73,30.85Zm-8.56,12.76a37.53,37.53,0,0,1-4.84,16.13c-2.75,4.58-5.64,6.77-8.82,6.76-3.52,0-5.26-2.69-5.31-8.68,0-.86,0-2,.12-3a36.29,36.29,0,0,1,4.89-15.94C177,34,180.11,31.74,183,31.74c3.5,0,5.27,2.73,5.31,9C188.28,41.65,188.25,42.6,188.17,43.61Zm-94.47,20S89.92,66,87.59,66h0a1.57,1.57,0,0,1-1.68-1.79,2.17,2.17,0,0,1,0-.29c0-.53,6.34-24,6.34-24a31.08,31.08,0,0,0,1.25-5.77c.05-.5.08-1,.08-1.43,0-3.85-2.12-5.92-6-5.93-3.63,0-7.68,2.05-12.35,6a71.7,71.7,0,0,0-12,13.84c1.24-4.23,3.64-12.7,3.75-13.75A8,8,0,0,0,67,32c0-3.48-2.49-5.27-6-5.28-5.67,0-8.76,6.21-8.79,6.23a.36.36,0,0,0,.08.44.36.36,0,0,0,.44,0c2.35-1.68,2.92-1.78,4.24-1.88a1.47,1.47,0,0,1,1.58,1.62c0,.12,0,.26,0,.42C58.49,34.35,48,70.3,48,70.34a.36.36,0,0,0,.06.32.35.35,0,0,0,.29.14H55.7a.36.36,0,0,0,.34-.26l4.25-14.45c10.3-15.35,15.78-20.75,20.59-20.7,1.13,0,1.35.68,1.39,1.93a8.16,8.16,0,0,1-.39,2.2l-5.38,19a43.57,43.57,0,0,0-1.62,6.55c0,.24,0,.47,0,.7,0,3.47,2.9,5.6,6.44,5.61l.66,0a13.54,13.54,0,0,0,6.8-2.27,19.88,19.88,0,0,0,5.47-5,.36.36,0,0,0,0-.45A.36.36,0,0,0,93.7,63.59Zm55.23.57s-3.7,2.42-6.05,2.43h0c-1,0-1.64-.53-1.67-1.81,0-.1,0-.19,0-.27h0a39.79,39.79,0,0,1,1.31-5.61L158.27.79a.36.36,0,0,0-.14-.38c-.12-.09-.29-.1-.61,0,0,0-7.55,5.44-16.36,5.44a.36.36,0,0,0-.25.11.35.35,0,0,0-.11.26c0,.32-.05,1-.05,1a.38.38,0,0,0,.09.27.36.36,0,0,0,.27.12h4.33c.5,0,.79.6.8,1.29a2.45,2.45,0,0,1-.06.52v0c-1,3.6-2.94,11-4.81,17.94A50.22,50.22,0,0,0,129,28.53a25.8,25.8,0,0,0-8.87,4.63,45.52,45.52,0,0,0-11.37,13,32.87,32.87,0,0,0-4.93,14.8c0,.49-.05,1-.05,1.44,0,5.91,2.71,9.08,7.92,9.09,3.67,0,7.87-2.09,12.2-6.15A56.77,56.77,0,0,0,134.56,51.9l-1.79,6.81a40.69,40.69,0,0,0-1.35,6.58c0,.21,0,.42,0,.63,0,3.6,2.2,5.49,5.83,5.54h.1c.26,0,.54,0,1-.07,5.42-.57,10.36-5.68,11.07-6.74a.36.36,0,0,0,0-.45A.36.36,0,0,0,148.93,64.16ZM137.2,42a90.92,90.92,0,0,1-10.87,15.23c-4.09,4.43-7.2,6.58-9.2,6.55-1.75,0-2.61-1.25-2.66-4.37,0-.33,0-.67,0-1,.31-5.44,2.2-11.39,5.85-18,2.92-5.77,6.42-8.46,10.57-8.46a21.55,21.55,0,0,1,8.64,1.95Z"/></svg>