<svg id="レイヤー_1" data-name="レイヤー 1" xmlns="http://www.w3.org/2000/svg" width="358" height="56" viewBox="0 0 358 56"><defs><style>.cls-1{fill:#65bbb1;}</style></defs><title>txt_shopping</title><path class="cls-1" d="M18.25,23.56a7.39,7.39,0,0,0-3.11-1.4,8.16,8.16,0,0,0-3.62,0,8.62,8.62,0,0,0-2,.73A6.37,6.37,0,0,0,7.85,24.1a4.49,4.49,0,0,0-1,1.71,3.92,3.92,0,0,0,0,2.19,3.75,3.75,0,0,0,.92,1.79,4.29,4.29,0,0,0,1.6,1,9,9,0,0,0,2.21.51q1.27.14,2.76.23,1.71.14,3.56.39a13.25,13.25,0,0,1,3.53,1,8.81,8.81,0,0,1,3,2.14,8.39,8.39,0,0,1,1.86,3.82,10.49,10.49,0,0,1,.11,4.84,9.75,9.75,0,0,1-1.84,3.88,11.42,11.42,0,0,1-3.37,2.84A16.58,16.58,0,0,1,16.6,52.2a17.92,17.92,0,0,1-6.58.29,12.54,12.54,0,0,1-5.87-2.33l3.28-4.87a8.7,8.7,0,0,0,3.87,1.89,9.46,9.46,0,0,0,4.22,0,9.41,9.41,0,0,0,2-.75,5.73,5.73,0,0,0,1.73-1.31,4.93,4.93,0,0,0,1-1.83,4.46,4.46,0,0,0,0-2.37,3.76,3.76,0,0,0-1.12-2,5.58,5.58,0,0,0-2-1.1,12.28,12.28,0,0,0-2.68-.52L11.39,37a29.92,29.92,0,0,1-3.25-.42,10.24,10.24,0,0,1-3.09-1.09A8.55,8.55,0,0,1,2.5,33.37a9.14,9.14,0,0,1-1.66-3.7,8.63,8.63,0,0,1,0-4.55,9.44,9.44,0,0,1,2-3.63,12.5,12.5,0,0,1,3.46-2.66,17.49,17.49,0,0,1,4.27-1.61A16.29,16.29,0,0,1,16,16.91,13,13,0,0,1,21.1,18.5Z"/><path class="cls-1" d="M43.44,11.21l6-1L51.59,23.7l15.66-2.51L65.07,7.75l6-1,5.4,33.26-6,1-2.4-14.75L52.41,28.77l2.4,14.75-6,1Z"/><path class="cls-1" d="M95.44,20.56a18.74,18.74,0,0,1,.76-7.39,16,16,0,0,1,3.32-5.83,16.77,16.77,0,0,1,5.44-4,20.62,20.62,0,0,1,7.14-1.82,21.07,21.07,0,0,1,7.41.64,17,17,0,0,1,6.07,3,15.92,15.92,0,0,1,4.25,5.22,18.76,18.76,0,0,1,2,7.17,18.49,18.49,0,0,1-.77,7.3,16.6,16.6,0,0,1-3.34,5.91,17.29,17.29,0,0,1-5.48,4.12,20,20,0,0,1-7.2,1.9,19.72,19.72,0,0,1-7.35-.71,17.16,17.16,0,0,1-6-3.19,16.84,16.84,0,0,1-4.24-5.29A18.49,18.49,0,0,1,95.44,20.56ZM102,20a14.19,14.19,0,0,0,1.24,4.89,11.58,11.58,0,0,0,2.71,3.72,11,11,0,0,0,3.89,2.28,11.7,11.7,0,0,0,4.78.54,11.83,11.83,0,0,0,4.65-1.31,10.87,10.87,0,0,0,3.49-2.89,11.54,11.54,0,0,0,2.07-4.11,14.21,14.21,0,0,0,.43-5A13.75,13.75,0,0,0,124,13.37a11.81,11.81,0,0,0-2.69-3.7,11,11,0,0,0-3.89-2.31,11.73,11.73,0,0,0-4.86-.56,11.54,11.54,0,0,0-4.68,1.33,11,11,0,0,0-3.44,2.9,11.81,11.81,0,0,0-2,4.08A13.73,13.73,0,0,0,102,20Z"/><path class="cls-1" d="M153.37.16,164.45,0a24.38,24.38,0,0,1,5.28.46,11,11,0,0,1,4,1.66,8,8,0,0,1,2.63,3,10.08,10.08,0,0,1,1,4.46,9.61,9.61,0,0,1-1,4.73,8.51,8.51,0,0,1-2.81,3.1,12.51,12.51,0,0,1-4.17,1.74,23.7,23.7,0,0,1-5.07.59l-4.65.06.18,13.94-6,.08Zm10.44,14.58a17.68,17.68,0,0,0,2.83-.25A7.9,7.9,0,0,0,169,13.7a4.39,4.39,0,0,0,1.66-1.52,4.45,4.45,0,0,0,.59-2.48,4.24,4.24,0,0,0-.65-2.39A4.31,4.31,0,0,0,169,5.87a7.15,7.15,0,0,0-2.36-.66,21.56,21.56,0,0,0-2.71-.13l-4.41.05.12,9.66Z"/><path class="cls-1" d="M199.67.45,210.72,1a24.3,24.3,0,0,1,5.24.8,11,11,0,0,1,3.93,1.92A8,8,0,0,1,222.31,7a10.06,10.06,0,0,1,.67,4.51,9.62,9.62,0,0,1-1.31,4.65,8.56,8.56,0,0,1-3,2.91,12.53,12.53,0,0,1-4.28,1.46,23.8,23.8,0,0,1-5.1.25l-4.64-.25-.75,13.92-6-.32Zm9.45,15.23a17.79,17.79,0,0,0,2.84-.07,7.86,7.86,0,0,0,2.43-.63,4.41,4.41,0,0,0,1.76-1.41,4.45,4.45,0,0,0,.76-2.44,4.23,4.23,0,0,0-.49-2.43,4.29,4.29,0,0,0-1.57-1.54,7.18,7.18,0,0,0-2.31-.81,21.6,21.6,0,0,0-2.7-.31l-4.4-.23-.52,9.64Z"/><path class="cls-1" d="M245.48,3.74l6,.64-3.61,33.51-6-.64Z"/><path class="cls-1" d="M275.68,7.32l7.89,1.32,11.33,27.48H295l4.22-24.87,6,1-5.63,33.23L292,44.21,280.45,15.89l-.09,0L276,41.54l-6-1Z"/><path class="cls-1" d="M350.48,55.47a26.51,26.51,0,0,1-6,.49,33,33,0,0,1-7.07-1.05,20.77,20.77,0,0,1-7-3.09,17.11,17.11,0,0,1-4.77-5,16.54,16.54,0,0,1-2.32-6.37,18.46,18.46,0,0,1,.45-7.32A18.22,18.22,0,0,1,327,26.41,16.35,16.35,0,0,1,332.1,22a17.31,17.31,0,0,1,6.51-2,21,21,0,0,1,7.37.56,22.67,22.67,0,0,1,6.94,2.94,15.17,15.17,0,0,1,4.52,4.29L352.3,31.1a10.23,10.23,0,0,0-2.91-3.23,12.63,12.63,0,0,0-4.66-2.19,12,12,0,0,0-5-.25,11,11,0,0,0-4.25,1.64,11.87,11.87,0,0,0-3.26,3.21,13.79,13.79,0,0,0-2,4.51,14.19,14.19,0,0,0-.41,5,11.48,11.48,0,0,0,1.36,4.39,10.7,10.7,0,0,0,3,3.43,13,13,0,0,0,4.68,2.13,17.66,17.66,0,0,0,6.85.48l2.1-8.31L341,40.19l1.22-4.8,12.6,3.15Z"/></svg>