<svg id="レイヤー_1" data-name="レイヤー 1" xmlns="http://www.w3.org/2000/svg" width="1040" height="1040" viewBox="0 0 1040 1040"><defs><style>.cls-1{fill:#5ddbcc;}</style></defs><title>logo_sukusukuball_top</title><path class="cls-1" d="M155.75,61.63q-6.56-8.49-18.5-14.2a55.38,55.38,0,0,0-24.06-5.71,59.54,59.54,0,0,0-14.4,1.79,44,44,0,0,0-13.1,5.55A30.71,30.71,0,0,0,76,58.85a26.91,26.91,0,0,0-3.76,14.53,25.88,25.88,0,0,0,3.27,13.38,29.68,29.68,0,0,0,9,9.47,61.48,61.48,0,0,0,13.91,6.86q8.18,2.94,18,5.87,11.13,3.6,23.08,8.16a89.75,89.75,0,0,1,21.94,12.08,60,60,0,0,1,16.37,18.93q6.39,11.43,6.39,28.4,0,18.61-6.88,32.48A67,67,0,0,1,159,232a78.36,78.36,0,0,1-26.85,13.71,113.34,113.34,0,0,1-32.41,4.57A122,122,0,0,1,55.57,242Q34,233.66,20.2,217.34l29.47-27.42a59.13,59.13,0,0,0,22.76,18.61q14.24,6.86,28,6.86a63.17,63.17,0,0,0,14.73-1.8,39.24,39.24,0,0,0,13.59-6,33.87,33.87,0,0,0,9.82-10.61q3.76-6.36,3.76-15.83,0-9.14-4.26-15.18a38.08,38.08,0,0,0-11.46-10.44,82.25,82.25,0,0,0-17-7.67L89,141a202,202,0,0,1-21-7.83A69.37,69.37,0,0,1,49.18,121a58.24,58.24,0,0,1-13.59-18.44q-5.24-10.93-5.24-27.26,0-17.62,7.37-30.36A65,65,0,0,1,57,23.92,86.23,86.23,0,0,1,84.21,11.52a119.13,119.13,0,0,1,30.94-4.08A110.66,110.66,0,0,1,151,13.64a87.78,87.78,0,0,1,31.6,18.61Z"/><path class="cls-1" d="M460.25,159.56q0,20.9-7.2,37.7a84.5,84.5,0,0,1-19.65,28.56,86.5,86.5,0,0,1-29.47,18.12,110.72,110.72,0,0,1-74,0,88.2,88.2,0,0,1-29.63-18.12,81.48,81.48,0,0,1-19.64-28.56q-7-16.81-7-37.7V13.32h41.26V157.92A78.44,78.44,0,0,0,317.5,178a49.09,49.09,0,0,0,8.68,17.79,44.74,44.74,0,0,0,16,12.73q10,4.9,24.72,4.9t24.72-4.9a44.82,44.82,0,0,0,16-12.73A49.29,49.29,0,0,0,416.38,178,78.66,78.66,0,0,0,419,157.92V13.32h41.25Z"/><path class="cls-1" d="M559.45,13.32H600.7V113.2h1L698.6,13.32h55.66L645.89,120.06,761.47,244.43h-58L601.69,128.54h-1V244.43H559.45Z"/><path class="cls-1" d="M1019.8,159.56q0,20.9-7.2,37.7a84.51,84.51,0,0,1-19.65,28.56,86.5,86.5,0,0,1-29.47,18.12,110.72,110.72,0,0,1-74,0,88.2,88.2,0,0,1-29.63-18.12,81.46,81.46,0,0,1-19.64-28.56q-7-16.81-7-37.7V13.32h41.26V157.92A78.44,78.44,0,0,0,877,178a49.09,49.09,0,0,0,8.68,17.79,44.73,44.73,0,0,0,16,12.73q10,4.9,24.72,4.9t24.72-4.9a44.81,44.81,0,0,0,16-12.73A49.28,49.28,0,0,0,975.93,178a78.67,78.67,0,0,0,2.62-20.08V13.32h41.25Z"/><path class="cls-1" d="M155.75,453.45q-6.56-8.48-18.5-14.2a55.38,55.38,0,0,0-24.06-5.71,59.29,59.29,0,0,0-14.4,1.8,44,44,0,0,0-13.1,5.55A30.71,30.71,0,0,0,76,450.68a26.91,26.91,0,0,0-3.76,14.52,25.86,25.86,0,0,0,3.27,13.38,29.63,29.63,0,0,0,9,9.47,61.06,61.06,0,0,0,13.91,6.86q8.18,2.94,18,5.88,11.13,3.59,23.08,8.16A89.75,89.75,0,0,1,161.48,521,60,60,0,0,1,177.85,540q6.39,11.43,6.39,28.4,0,18.61-6.88,32.48a67,67,0,0,1-18.33,23,78.29,78.29,0,0,1-26.85,13.71,113.52,113.52,0,0,1-32.41,4.57,122,122,0,0,1-44.2-8.32Q34,625.48,20.2,609.16l29.47-27.42a59.17,59.17,0,0,0,22.76,18.61q14.24,6.85,28,6.85a63.43,63.43,0,0,0,14.73-1.79,39.34,39.34,0,0,0,13.59-6,33.89,33.89,0,0,0,9.82-10.61q3.76-6.36,3.76-15.83,0-9.14-4.26-15.18a38.09,38.09,0,0,0-11.46-10.45,82.75,82.75,0,0,0-17-7.67L89,532.77a201.87,201.87,0,0,1-21-7.83,69.37,69.37,0,0,1-18.83-12.08,58.24,58.24,0,0,1-13.59-18.44q-5.24-10.93-5.24-27.26,0-17.63,7.37-30.36A64.93,64.93,0,0,1,57,415.75a86.13,86.13,0,0,1,27.17-12.41,119.14,119.14,0,0,1,30.94-4.08,110.53,110.53,0,0,1,35.85,6.2,87.71,87.71,0,0,1,31.6,18.61Z"/><path class="cls-1" d="M460.25,551.38q0,20.9-7.2,37.71a84.54,84.54,0,0,1-19.65,28.56,86.48,86.48,0,0,1-29.47,18.12,110.72,110.72,0,0,1-74,0,88.18,88.18,0,0,1-29.63-18.12,81.52,81.52,0,0,1-19.64-28.56q-7-16.81-7-37.71V405.13h41.26V549.75a78.47,78.47,0,0,0,2.62,20.08,49.11,49.11,0,0,0,8.68,17.79,44.75,44.75,0,0,0,16,12.73q10,4.9,24.72,4.89t24.72-4.89a44.82,44.82,0,0,0,16-12.73,49.31,49.31,0,0,0,8.68-17.79A78.7,78.7,0,0,0,419,549.75V405.13h41.25Z"/><path class="cls-1" d="M559.45,405.13H600.7V505h1l96.92-99.89h55.66L645.89,511.88,761.47,636.25h-58L601.69,520.37h-1V636.25H559.45Z"/><path class="cls-1" d="M1019.8,551.38q0,20.9-7.2,37.71a84.55,84.55,0,0,1-19.65,28.56,86.48,86.48,0,0,1-29.47,18.12,110.72,110.72,0,0,1-74,0,88.18,88.18,0,0,1-29.63-18.12,81.5,81.5,0,0,1-19.64-28.56q-7-16.81-7-37.71V405.13h41.26V549.75A78.47,78.47,0,0,0,877,569.82a49.11,49.11,0,0,0,8.68,17.79,44.74,44.74,0,0,0,16,12.73q10,4.9,24.72,4.89t24.72-4.89a44.82,44.82,0,0,0,16-12.73,49.31,49.31,0,0,0,8.68-17.79,78.7,78.7,0,0,0,2.62-20.08V405.13h41.25Z"/><path class="cls-1" d="M23.93,801.44H114.3a109.51,109.51,0,0,1,25.86,3.1,66.58,66.58,0,0,1,22.76,10.12,54.26,54.26,0,0,1,16.21,18.12q6.22,11.1,6.22,26.76,0,19.59-11.13,32.31t-29.14,18.28v.65q21.93,2.94,36,17t14.08,37.54q0,18.94-7.53,31.83a60.2,60.2,0,0,1-19.81,20.73,85.37,85.37,0,0,1-28.16,11.26,152.4,152.4,0,0,1-32.25,3.43H23.93Zm41.25,94h36.67q20.63,0,31.43-8.16t10.8-23.18q0-15.67-11.13-22.2t-34.7-6.53H65.18Zm0,102.5h37a137.64,137.64,0,0,0,17-1.14,56,56,0,0,0,16.86-4.73,33.09,33.09,0,0,0,12.77-10.45q5.08-6.85,5.08-18.28,0-18.27-12.44-25.46t-37.65-7.18H65.18Z"/><path class="cls-1" d="M389.65,801.44h35.69l99.86,231.12H478.05l-21.61-52.88H355.93l-21,52.88H288.81Zm52.39,143-35.69-94-36.34,94Z"/><path class="cls-1" d="M629.31,801.44h41.25V996h98.55v36.56H629.31Z"/><path class="cls-1" d="M877.82,801.44h41.26V996h98.55v36.56H877.82Z"/></svg>