<svg id="レイヤー_1" data-name="レイヤー 1" xmlns="http://www.w3.org/2000/svg" width="360" height="144" viewBox="0 0 360 144"><defs><style>.cls-1{fill:#fff;}</style></defs><title>txt_qa</title><path class="cls-1" d="M29,128.41l9.56,6.1-7.48,1.75-4.53-2.94a14.12,14.12,0,0,1-3.23,4.11,12.73,12.73,0,0,1-5.64,2.65,14.89,14.89,0,0,1-4.35.38,10.7,10.7,0,0,1-4-1A9.25,9.25,0,0,1,6.29,137a9.39,9.39,0,0,1-1.89-4,8.77,8.77,0,0,1-.16-3.44,10,10,0,0,1,1-3A11.28,11.28,0,0,1,7.07,124,18.43,18.43,0,0,1,9.43,122,15.88,15.88,0,0,1,6,119.08a8.44,8.44,0,0,1-1.89-3.73,7.64,7.64,0,0,1,1.52-6.89,9.24,9.24,0,0,1,2.65-2.17A12.85,12.85,0,0,1,11.56,105a12.41,12.41,0,0,1,3.55-.31,8.77,8.77,0,0,1,3.27.81A7.78,7.78,0,0,1,21,107.58a8.58,8.58,0,0,1,1.74,6.4,9.4,9.4,0,0,1-.88,2.77,10.52,10.52,0,0,1-1.7,2.44,19.2,19.2,0,0,1-2.29,2.11l6.74,4.39L27,118.77l6.4-1.5ZM12.73,109.54a4,4,0,0,0-2.5,1.67,3.55,3.55,0,0,0-.49,2.93,5.44,5.44,0,0,0,1.4,2.53,11.37,11.37,0,0,0,2.76,2.07,16,16,0,0,0,1.62-1.36,7.85,7.85,0,0,0,1.24-1.52,5.32,5.32,0,0,0,.68-1.69,4.15,4.15,0,0,0,0-1.82A3.7,3.7,0,0,0,15.73,110,3.75,3.75,0,0,0,12.73,109.54Zm.69,15.27A11,11,0,0,0,11.85,126a6.58,6.58,0,0,0-1.19,1.46,5,5,0,0,0-.64,1.8,5.61,5.61,0,0,0,.11,2.17,5,5,0,0,0,1,2.08,5.11,5.11,0,0,0,1.67,1.33,6.07,6.07,0,0,0,2,.59,5.86,5.86,0,0,0,2-.1,6.77,6.77,0,0,0,3.3-1.71,9.88,9.88,0,0,0,2.07-3.15Z"/><path class="cls-1" d="M79.43,93.35l5.19-.68,18.92,31.82-6.85.9-4.15-7.3L77.92,120l-2,8.11-6.71.88Zm10.34,19.86-7-13-3.49,14.4Z"/><path class="cls-1" d="M120.32,88.91l8-.44L145.49,113h.1l-1.4-25.41,6-.33,1.87,33.95-7.67.42L126.88,96.29h-.1l1.44,26.23-6,.34Z"/><path class="cls-1" d="M192.67,94.26A7.36,7.36,0,0,0,190,92.13a8.06,8.06,0,0,0-3.51-.89,8.61,8.61,0,0,0-2.12.24,6.45,6.45,0,0,0-1.93.79A4.54,4.54,0,0,0,181,93.69a4,4,0,0,0-.58,2.13,3.82,3.82,0,0,0,.45,2,4.35,4.35,0,0,0,1.3,1.41,9,9,0,0,0,2,1q1.19.45,2.63.9,1.62.55,3.37,1.25a13.09,13.09,0,0,1,3.19,1.82,8.81,8.81,0,0,1,2.36,2.82,8.49,8.49,0,0,1,.88,4.19,10.66,10.66,0,0,1-1.07,4.76,9.82,9.82,0,0,1-2.73,3.35,11.43,11.43,0,0,1-4,2,16.6,16.6,0,0,1-4.76.61,17.81,17.81,0,0,1-6.46-1.31,12.48,12.48,0,0,1-5.13-3.7l4.37-4a8.66,8.66,0,0,0,3.3,2.78,9.4,9.4,0,0,0,4.09,1.06,9.27,9.27,0,0,0,2.16-.23,5.8,5.8,0,0,0,2-.86,5,5,0,0,0,1.46-1.54,4.52,4.52,0,0,0,.58-2.32,3.79,3.79,0,0,0-.59-2.24,5.62,5.62,0,0,0-1.66-1.56,12.16,12.16,0,0,0-2.48-1.16l-3-1.05a29.48,29.48,0,0,1-3.06-1.19,10.12,10.12,0,0,1-2.73-1.81,8.57,8.57,0,0,1-2-2.74,9.29,9.29,0,0,1-.71-4,8.79,8.79,0,0,1,1.14-4.45,9.56,9.56,0,0,1,2.87-3.06,12.65,12.65,0,0,1,4-1.77,17.46,17.46,0,0,1,4.54-.54,16.16,16.16,0,0,1,5.24,1,12.88,12.88,0,0,1,4.59,2.8Z"/><path class="cls-1" d="M217.54,87.8l6.6.6,4.29,25.47h.1l9.72-24.19,6.21.57,5,25.53h.1l9-24.26,6.4.58-13,33-5.83-.53-5.62-26.12h-.1l-10.24,24.67-5.83-.53Z"/><path class="cls-1" d="M286.77,95.51l22.18,3.84-.9,5.2-16.22-2.8-1.47,8.52,15.37,2.66-.87,5-15.37-2.66-1.63,9.47,17.07,3L304,133l-23-4Z"/><path class="cls-1" d="M333,104.37l11.47,2.81a21.19,21.19,0,0,1,4.4,1.6,12,12,0,0,1,3.5,2.56,8.65,8.65,0,0,1,2,3.61,9.15,9.15,0,0,1-.06,4.68,8.68,8.68,0,0,1-3.46,5.36,10.5,10.5,0,0,1-6.27,1.7l5.22,16.81-7.08-1.74-4.22-15.87-4.29-1.05-3.43,14-5.87-1.44Zm7.19,16.84a18,18,0,0,0,2.56.43,7.45,7.45,0,0,0,2.43-.15,4.56,4.56,0,0,0,2-1.06,4.39,4.39,0,0,0,1.25-2.29,3.9,3.9,0,0,0-.06-2.36,4.68,4.68,0,0,0-1.2-1.75,6.66,6.66,0,0,0-1.95-1.22A15.62,15.62,0,0,0,343,112l-5.31-1.3L335.37,120Z"/><path class="cls-1" d="M42.12,48.08l-20,4.63a22.13,22.13,0,0,1-7.49.53,16,16,0,0,1-6.33-2,15.07,15.07,0,0,1-4.81-4.5A19.7,19.7,0,0,1,.6,39.82a17.8,17.8,0,0,1-.27-7.21A16.24,16.24,0,0,1,2.8,26.39,17.37,17.37,0,0,1,7.63,21.6a20.13,20.13,0,0,1,6.75-2.87,19.89,19.89,0,0,1,7.3-.38,17.08,17.08,0,0,1,6.39,2.19A16.14,16.14,0,0,1,33,25a18.07,18.07,0,0,1,2.91,6.6,15.92,15.92,0,0,1,.44,4.24,16.68,16.68,0,0,1-.55,3.7,13.37,13.37,0,0,1-1.25,3.1,14.06,14.06,0,0,1-1.72,2.45l0,.09L41,43.3ZM15.6,24a11.49,11.49,0,0,0-4.26,1.92,11.15,11.15,0,0,0-3,3.26,11.58,11.58,0,0,0-1.5,4.24A12.76,12.76,0,0,0,7,38.32,14,14,0,0,0,9,43a11.14,11.14,0,0,0,3.15,3.19,10.64,10.64,0,0,0,4.09,1.59A11.85,11.85,0,0,0,21,47.56a12,12,0,0,0,4.31-1.91,10.82,10.82,0,0,0,3-3.24,11.24,11.24,0,0,0,1.48-4.26,14.63,14.63,0,0,0-2.16-9.53,10.67,10.67,0,0,0-7.22-4.78A11.74,11.74,0,0,0,15.6,24Z"/><path class="cls-1" d="M86.37,28.36A14,14,0,0,1,86.14,34a12.46,12.46,0,0,1-2.23,4.58A12.65,12.65,0,0,1,80,41.85,16.18,16.18,0,0,1,69.3,43.44a12.92,12.92,0,0,1-4.69-2,12,12,0,0,1-3.47-3.73,14.26,14.26,0,0,1-1.83-5.33L56.15,11.1l6-.89,3.12,21a11.6,11.6,0,0,0,.81,2.86,7.21,7.21,0,0,0,1.64,2.4A6.52,6.52,0,0,0,70.31,38,9.46,9.46,0,0,0,77.48,37a6.58,6.58,0,0,0,2.05-2.2A7.27,7.27,0,0,0,80.4,32a11.59,11.59,0,0,0-.05-3L77.22,8l6-.89Z"/><path class="cls-1" d="M108.51,4.33,131,2.59l.41,5.27L114.95,9.13l.67,8.62,15.55-1.2.39,5.07L116,22.82l.74,9.58L134,31.06l.41,5.36-23.3,1.8Z"/><path class="cls-1" d="M173.26,8.41a7.34,7.34,0,0,0-2.74-2.05A8.11,8.11,0,0,0,167,5.56a8.61,8.61,0,0,0-2.11.29,6.49,6.49,0,0,0-1.91.84,4.52,4.52,0,0,0-1.4,1.46,4,4,0,0,0-.52,2.14,3.83,3.83,0,0,0,.51,2,4.35,4.35,0,0,0,1.34,1.37,9,9,0,0,0,2.05,1q1.21.42,2.65.83,1.64.51,3.4,1.16a13,13,0,0,1,3.24,1.73,8.79,8.79,0,0,1,2.44,2.75,8.49,8.49,0,0,1,1,4.17,10.67,10.67,0,0,1-.95,4.79,9.85,9.85,0,0,1-2.64,3.42,11.42,11.42,0,0,1-3.91,2.06,16.52,16.52,0,0,1-4.74.74,17.86,17.86,0,0,1-6.49-1.14,12.47,12.47,0,0,1-5.23-3.56L158,27.48a8.67,8.67,0,0,0,3.37,2.69,8.91,8.91,0,0,0,6.27.66,5.77,5.77,0,0,0,2-.92A5,5,0,0,0,171,28.34a4.53,4.53,0,0,0,.52-2.34,3.8,3.8,0,0,0-.65-2.23,5.6,5.6,0,0,0-1.7-1.51,12.08,12.08,0,0,0-2.51-1.09l-3-1a29.63,29.63,0,0,1-3.09-1.11,10.13,10.13,0,0,1-2.78-1.74,8.55,8.55,0,0,1-2-2.69,9.27,9.27,0,0,1-.82-4,8.79,8.79,0,0,1,1-4.48A9.51,9.51,0,0,1,158.72,3a12.58,12.58,0,0,1,4-1.88A17.4,17.4,0,0,1,167.2.51a16.12,16.12,0,0,1,5.27.84A12.88,12.88,0,0,1,177.14,4Z"/><path class="cls-1" d="M207.53,7.32l-10.4-.51.26-5.28,26.84,1.3L224,8.11l-10.4-.5-1.39,28.68-6-.29Z"/><path class="cls-1" d="M244.42,4.6l6,.6L247.06,39l-6-.6Z"/><path class="cls-1" d="M270.09,24.34a19,19,0,0,1,2.53-7.05,16.17,16.17,0,0,1,4.64-4.91,16.78,16.78,0,0,1,6.26-2.58,20.59,20.59,0,0,1,7.38-.06,21,21,0,0,1,7,2.41,17,17,0,0,1,5.16,4.44A16,16,0,0,1,306,22.72a19,19,0,0,1,.17,7.49,18.77,18.77,0,0,1-2.52,7,16.75,16.75,0,0,1-4.68,5,17.3,17.3,0,0,1-6.33,2.72,19.92,19.92,0,0,1-7.46.12,19.56,19.56,0,0,1-7-2.47,16.76,16.76,0,0,1-7.92-10.78A18.78,18.78,0,0,1,270.09,24.34Zm6.49,1.06a14.42,14.42,0,0,0,0,5.09,11.68,11.68,0,0,0,1.73,4.3A11,11,0,0,0,281.56,38a11.61,11.61,0,0,0,4.51,1.68,11.8,11.8,0,0,0,4.84-.16,10.92,10.92,0,0,0,4.09-2A11.7,11.7,0,0,0,298,34a14.45,14.45,0,0,0,1.63-4.82,13.94,13.94,0,0,0,0-5,12,12,0,0,0-1.71-4.27,11,11,0,0,0-3.22-3.2A11.67,11.67,0,0,0,290.09,15a11.51,11.51,0,0,0-4.87.18,11.06,11.06,0,0,0-4,2,11.94,11.94,0,0,0-3,3.51A13.94,13.94,0,0,0,276.58,25.4Z"/><path class="cls-1" d="M330.85,18.16l7.78,1.92,9.22,28.5.09,0,6.1-24.71,5.87,1.45-8.15,33-7.45-1.84L335,27.14l-.09,0-6.3,25.5-5.87-1.45Z"/></svg>