<svg id="レイヤー_1" data-name="レイヤー 1" xmlns="http://www.w3.org/2000/svg" width="1480" height="572" viewBox="0 0 1480 572"><defs><style>.cls-1{fill:#de652f;}.cls-2{fill:#65bbb1;}.cls-3{fill:#e8652b;}.cls-4{fill:#f2f2f2;}.cls-5{fill:#63b3aa;}.cls-6{fill:#e7c056;}.cls-7{fill:#dbdcdd;}.cls-8{fill:#d0d2d3;}.cls-9{fill:#ea723d;}.cls-10{fill:#cd4e27;}</style></defs><title>roof_gallery</title><path class="cls-1" d="M695.82,236C591.24,356.81,295,516.39,176.8,572h86.64c145.39-71.88,386.69-257,438.61-336Z"/><path class="cls-2" d="M436.73,572H350.09c130-79.63,324.15-247,359.35-336h5.72C691.15,328.14,547.49,478.43,436.73,572Z"/><path class="cls-3" d="M610,572H523.38C600.94,476.11,702.06,339.76,723,236h6.15C716.63,352.38,645.88,514.06,610,572Z"/><path class="cls-2" d="M783.32,572c-23.81-99.58-40-244.63-40-336h-6.54c0,91.41-16.25,236.46-40.06,336Z"/><path class="cls-4" d="M350.09,572c130-79.63,324.15-247,359.35-336h-7.39c-51.91,79-293.22,264.16-438.61,336Z"/><path class="cls-4" d="M523.38,572C600.94,476.11,702.06,339.76,723,236h-7.82c-24,92.19-167.67,242.47-278.43,336Z"/><path class="cls-4" d="M696.67,572c23.81-99.58,40.06-244.63,40.06-336h-7.6C716.63,352.38,645.88,514.06,610,572Z"/><path class="cls-3" d="M784.17,236c104.58,120.85,400.87,280.43,519,336h-86.64c-145.39-71.88-386.7-257-438.6-336Z"/><path class="cls-2" d="M1043.26,572h86.64c-130-79.63-324.14-247-359.34-336h-5.74C788.84,328.14,932.49,478.43,1043.26,572Z"/><path class="cls-3" d="M870,572h86.65C879,476.11,777.92,339.76,757,236h-6.15C763.37,352.38,834.11,514.06,870,572Z"/><path class="cls-4" d="M1129.9,572c-130-79.63-324.14-247-359.34-336h7.39c51.9,79,293.21,264.16,438.6,336Z"/><path class="cls-4" d="M956.61,572C879,476.11,777.92,339.76,757,236h7.82c24,92.19,167.67,242.47,278.43,336Z"/><path class="cls-4" d="M783.32,572c-23.81-99.58-40-244.63-40-336h7.59C763.37,352.38,834.11,514.06,870,572Z"/><path class="cls-4" d="M688.33,236C574,362.06,209.75,521.31,90.16,572H176.8c118.16-55.61,414.44-215.19,519-336Z"/><path class="cls-5" d="M3.51,572c119.59-50.69,562.73-209.94,677.09-336h7.72C574,362.06,209.75,521.31,90.16,572Z"/><path class="cls-3" d="M695.82,236C591.24,356.81,295,516.39,176.8,572h86.64c145.39-71.88,386.69-257,438.61-336Z"/><path class="cls-4" d="M688.33,236C574,362.06,209.75,521.31,90.16,572H176.8c118.16-55.61,414.44-215.19,519-336Z"/><path class="cls-2" d="M3.51,572c119.59-50.69,562.73-209.94,677.09-336h7.72C574,362.06,209.75,521.31,90.16,572Z"/><path class="cls-4" d="M791.67,236C906,362.06,1270.24,521.31,1389.84,572h-86.65c-118.16-55.61-414.44-215.19-519-336Z"/><path class="cls-2" d="M1476.49,572c-119.6-50.69-562.73-209.94-677.11-336h-7.71C906,362.06,1270.24,521.31,1389.84,572Z"/><circle class="cls-6" cx="739.59" cy="9.9" r="8.22"/><path class="cls-7" d="M678.47,236a6.09,6.09,0,0,1,0-12.18H800.63a6.09,6.09,0,1,1,0,12.18Z"/><path class="cls-8" d="M681.09,223.77a14.49,14.49,0,0,1,14.49-14.49h87.92A14.5,14.5,0,0,1,798,223.77Z"/><rect class="cls-7" x="735.73" y="20.66" width="7.66" height="188.62"/><polygon class="cls-9" points="813.24 91.4 863 91.4 851.31 62.19 863 32.97 818.21 32.97 813.24 91.4"/><polygon class="cls-10" points="813.24 91.4 826.87 83.61 831.84 25.18 818.21 32.97 813.24 91.4"/><polygon class="cls-3" points="744.19 25.18 831.84 25.18 826.87 83.61 744.19 83.61 744.19 25.18"/><rect class="cls-10" x="735" y="24.38" width="9.19" height="60.02"/><rect class="cls-8" x="734.93" y="17.32" width="9.26" height="3.31"/></svg>