<svg id="レイヤー_1" data-name="レイヤー 1" xmlns="http://www.w3.org/2000/svg" width="372" height="144" viewBox="0 0 372 144"><defs><style>.cls-1{fill:#65bbb1;}</style></defs><title>txt_animal</title><path class="cls-1" d="M63.66,102.43l5.16-.88L89,132.64l-6.82,1.17-4.43-7.15L63.2,129.14l-1.72,8.2-6.68,1.14Zm11.12,19.47-7.49-12.77-2.93,14.55Z"/><path class="cls-1" d="M104.41,96.38l8-.75,18.1,23.91h.09l-2.37-25.38,6-.57,3.17,33.9-7.65.72-18.51-24.69h-.1l2.44,26.19-6,.56Z"/><path class="cls-1" d="M159.25,92.36l6-.2,1.14,34-6,.2Z"/><path class="cls-1" d="M190.4,91.62l9.46.28L208,116.35h.14l9.46-23.92,9.51.28-1,34-6-.18.81-27.35h-.1l-11.14,27-4.22-.13-9.37-27.65H196l-.81,27.35-5.76-.17Z"/><path class="cls-1" d="M263.16,95.84l5.2.57,10.87,35.44-6.88-.75L270,123l-14.66-1.6-3.9,7.41-6.73-.74Zm5.35,21.78-3.7-14.34L258,116.47Z"/><path class="cls-1" d="M303.76,101.29l6,1.06-5,28.22L319,133.09l-.94,5.3-20.19-3.59Z"/><path class="cls-1" d="M17.64,33.61a7.36,7.36,0,0,0-3.15-1.34,8.12,8.12,0,0,0-3.63.08,8.69,8.69,0,0,0-2,.79,6.44,6.44,0,0,0-1.65,1.28,4.52,4.52,0,0,0-1,1.75,4,4,0,0,0,0,2.21,3.83,3.83,0,0,0,1,1.79,4.33,4.33,0,0,0,1.63,1,8.94,8.94,0,0,0,2.23.46c.85.08,1.77.13,2.77.17s2.33.17,3.58.31A13.23,13.23,0,0,1,21,43a8.86,8.86,0,0,1,3,2.09,8.5,8.5,0,0,1,2,3.81,10.7,10.7,0,0,1,.23,4.89,9.89,9.89,0,0,1-1.75,4,11.48,11.48,0,0,1-3.3,2.95,16.53,16.53,0,0,1-4.43,1.85A17.78,17.78,0,0,1,10.1,63a12.49,12.49,0,0,1-5.93-2.21l3.17-5a8.69,8.69,0,0,0,3.92,1.81,9.4,9.4,0,0,0,4.23-.06,9.26,9.26,0,0,0,2-.8,5.77,5.77,0,0,0,1.71-1.37,5,5,0,0,0,1-1.87,4.53,4.53,0,0,0-.05-2.4,3.8,3.8,0,0,0-1.17-2,5.54,5.54,0,0,0-2-1.06,12,12,0,0,0-2.7-.46l-3.18-.21A29.48,29.48,0,0,1,7.83,47a10.18,10.18,0,0,1-3.12-1A8.54,8.54,0,0,1,2.1,43.89,9.26,9.26,0,0,1,.35,40.2a8.83,8.83,0,0,1-.08-4.6,9.58,9.58,0,0,1,2-3.72,12.61,12.61,0,0,1,3.4-2.77,17.32,17.32,0,0,1,4.24-1.73,16.17,16.17,0,0,1,5.32-.44,12.85,12.85,0,0,1,5.18,1.48Z"/><path class="cls-1" d="M73.76,36.65a14.05,14.05,0,0,1,0,5.66A12.49,12.49,0,0,1,71.67,47a12.7,12.7,0,0,1-3.76,3.41,16.17,16.17,0,0,1-10.67,2,13,13,0,0,1-4.76-1.83,12,12,0,0,1-3.6-3.61,14.31,14.31,0,0,1-2-5.28L42.92,20.47l6-1.11,3.88,20.95a11.63,11.63,0,0,0,.92,2.84,7.27,7.27,0,0,0,1.73,2.34A6.53,6.53,0,0,0,58,46.91a9.49,9.49,0,0,0,7.13-1.32,6.58,6.58,0,0,0,2-2.27,7.3,7.3,0,0,0,.77-2.81,11.66,11.66,0,0,0-.16-3L63.89,16.57l6-1.11Z"/><path class="cls-1" d="M94.68,11.84l6-.67,1.61,14.63.14,0L115,9.59l8.12-.9L109,26.07l18.86,16.35-8.45.93L102.7,28l-.14,0,1.87,17-6,.66Z"/><path class="cls-1" d="M173.29,27.61a14,14,0,0,1-.84,5.59,12.44,12.44,0,0,1-2.72,4.32,12.64,12.64,0,0,1-4.22,2.83,16.19,16.19,0,0,1-10.85.42,12.93,12.93,0,0,1-4.45-2.5,12,12,0,0,1-3-4.1,14.3,14.3,0,0,1-1.24-5.51l-.83-21.53,6-.23L152,28.19a11.63,11.63,0,0,0,.5,2.94,7.27,7.27,0,0,0,1.37,2.57,6.54,6.54,0,0,0,2.42,1.78,9.47,9.47,0,0,0,7.25-.28,6.57,6.57,0,0,0,2.28-2A7.29,7.29,0,0,0,167,30.57a11.59,11.59,0,0,0,.27-3l-.82-21.29,6-.23Z"/><path class="cls-1" d="M214.5,13.67a7.34,7.34,0,0,0-2.66-2.17,8.11,8.11,0,0,0-3.51-.94,8.61,8.61,0,0,0-2.12.21,6.41,6.41,0,0,0-1.94.76,4.5,4.5,0,0,0-1.46,1.4,4,4,0,0,0-.61,2.13,3.81,3.81,0,0,0,.43,2,4.34,4.34,0,0,0,1.28,1.43,8.92,8.92,0,0,0,2,1.07q1.19.47,2.62.94,1.62.57,3.35,1.3a13.17,13.17,0,0,1,3.17,1.87,8.85,8.85,0,0,1,2.32,2.85,8.52,8.52,0,0,1,.82,4.21,10.68,10.68,0,0,1-1.14,4.76,9.86,9.86,0,0,1-2.78,3.32,11.51,11.51,0,0,1-4,1.91,16.58,16.58,0,0,1-4.77.54,17.84,17.84,0,0,1-6.45-1.41A12.52,12.52,0,0,1,194,36l4.43-3.92A8.7,8.7,0,0,0,201.67,35a9.39,9.39,0,0,0,4.08,1.12,9.17,9.17,0,0,0,2.17-.2,5.72,5.72,0,0,0,2-.83,5,5,0,0,0,1.48-1.52,4.52,4.52,0,0,0,.62-2.32,3.8,3.8,0,0,0-.56-2.25,5.63,5.63,0,0,0-1.64-1.59,12.17,12.17,0,0,0-2.46-1.2l-3-1.09a30,30,0,0,1-3-1.24A10.2,10.2,0,0,1,198.62,22a8.6,8.6,0,0,1-1.92-2.77,9.31,9.31,0,0,1-.66-4,8.82,8.82,0,0,1,1.2-4.44,9.59,9.59,0,0,1,2.92-3,12.58,12.58,0,0,1,4-1.71,17.28,17.28,0,0,1,4.55-.48A16.15,16.15,0,0,1,214,6.59a12.87,12.87,0,0,1,4.56,2.87Z"/><path class="cls-1" d="M267.55,32.1A14,14,0,0,1,266,37.53a12.46,12.46,0,0,1-3.27,3.91,12.71,12.71,0,0,1-4.56,2.25,16.17,16.17,0,0,1-10.81-1,12.94,12.94,0,0,1-4.07-3.07,12,12,0,0,1-2.47-4.46,14.32,14.32,0,0,1-.5-5.63l2-21.45,6,.58-2,21.21a11.54,11.54,0,0,0,.1,3,7.27,7.27,0,0,0,1,2.73,6.58,6.58,0,0,0,2.17,2.09,9.46,9.46,0,0,0,7.22.69,6.58,6.58,0,0,0,2.52-1.64,7.24,7.24,0,0,0,1.52-2.49,11.57,11.57,0,0,0,.66-2.91l2-21.21,6,.58Z"/><path class="cls-1" d="M294.48,14l6,1L298,29.5l.14,0L314.6,17.4l8.05,1.37-18.3,12.84L318,52.51l-8.38-1.42L297.75,31.75l-.14,0-2.86,16.83-6-1Z"/><path class="cls-1" d="M365.7,50.88A14,14,0,0,1,363.34,56a12.47,12.47,0,0,1-3.81,3.39,12.65,12.65,0,0,1-4.84,1.55,16.18,16.18,0,0,1-10.54-2.62,13,13,0,0,1-3.58-3.64,12,12,0,0,1-1.78-4.78,14.29,14.29,0,0,1,.33-5.64l5.18-20.91,5.87,1.46L345.06,45.5a11.63,11.63,0,0,0-.34,3,7.26,7.26,0,0,0,.6,2.85,6.57,6.57,0,0,0,1.83,2.39,9.47,9.47,0,0,0,7,1.75,6.57,6.57,0,0,0,2.74-1.25A7.27,7.27,0,0,0,358.8,52a11.6,11.6,0,0,0,1.08-2.78L365,28.5,370.88,30Z"/></svg>